<mxfile host="app.diagrams.net" agent="Mozilla/5.0 (X11; Linux x86_64) AppleWebKit/537.36 (KHTML, like Gecko) Chrome/131.0.0.0 Safari/537.36" version="26.0.7">
  <diagram name="Strona-1" id="xAucRueDlVX0D3c4Y8J7">
    <mxGraphModel dx="2390" dy="1310" grid="1" gridSize="10" guides="1" tooltips="1" connect="1" arrows="1" fold="1" page="1" pageScale="1" pageWidth="827" pageHeight="1169" math="0" shadow="0">
      <root>
        <mxCell id="0" />
        <mxCell id="1" parent="0" />
        <mxCell id="rcKBmjPD2T-8vvWQDqal-1" value="&lt;font style=&quot;font-size: 24px;&quot;&gt;Machine learning operations pipeline&lt;/font&gt;" style="text;html=1;align=center;verticalAlign=middle;whiteSpace=wrap;rounded=0;" vertex="1" parent="1">
          <mxGeometry x="170" y="70" width="520" height="100" as="geometry" />
        </mxCell>
        <mxCell id="rcKBmjPD2T-8vvWQDqal-2" value="" style="shape=image;verticalLabelPosition=bottom;labelBackgroundColor=default;verticalAlign=top;aspect=fixed;imageAspect=0;image=https://cdn-icons-png.flaticon.com/512/25/25231.png;" vertex="1" parent="1">
          <mxGeometry x="78" y="170" width="92" height="92" as="geometry" />
        </mxCell>
        <mxCell id="rcKBmjPD2T-8vvWQDqal-3" value="" style="shape=image;verticalLabelPosition=bottom;labelBackgroundColor=default;verticalAlign=top;aspect=fixed;imageAspect=0;image=https://www.cdata.com/ui/img/logo-googlecloudstorage.png;" vertex="1" parent="1">
          <mxGeometry x="207.5" y="162" width="216" height="108" as="geometry" />
        </mxCell>
        <mxCell id="rcKBmjPD2T-8vvWQDqal-10" value="" style="shape=image;verticalLabelPosition=bottom;labelBackgroundColor=default;verticalAlign=top;aspect=fixed;imageAspect=0;image=https://hisa-web.net/wp-content/uploads/2020/10/cloudbuild.png;" vertex="1" parent="1">
          <mxGeometry x="430" y="155.26999999999998" width="149" height="121.47" as="geometry" />
        </mxCell>
        <mxCell id="rcKBmjPD2T-8vvWQDqal-11" value="" style="shape=image;verticalLabelPosition=bottom;labelBackgroundColor=default;verticalAlign=top;aspect=fixed;imageAspect=0;image=https://miro.medium.com/v2/resize:fit:916/1*ajSlM5ISpMEiuZbPb2DCAg.png;" vertex="1" parent="1">
          <mxGeometry x="60" y="310" width="138" height="128.96" as="geometry" />
        </mxCell>
        <mxCell id="rcKBmjPD2T-8vvWQDqal-12" value="&lt;font style=&quot;font-size: 17px;&quot;&gt;Artifact Registry&lt;/font&gt;" style="text;html=1;align=center;verticalAlign=middle;whiteSpace=wrap;rounded=0;" vertex="1" parent="1">
          <mxGeometry x="64" y="420.26" width="130" height="64.87" as="geometry" />
        </mxCell>
        <mxCell id="rcKBmjPD2T-8vvWQDqal-16" value="" style="shape=image;verticalLabelPosition=bottom;labelBackgroundColor=default;verticalAlign=top;aspect=fixed;imageAspect=0;image=https://miro.medium.com/v2/resize:fit:513/1*aeXlwnOS3DvVHiMVgBZbpQ.png;" vertex="1" parent="1">
          <mxGeometry x="590" y="130" width="163" height="162.68" as="geometry" />
        </mxCell>
        <mxCell id="rcKBmjPD2T-8vvWQDqal-18" value="&lt;font style=&quot;font-size: 17px;&quot;&gt;Vertex AI&lt;/font&gt;" style="text;html=1;align=center;verticalAlign=middle;whiteSpace=wrap;rounded=0;" vertex="1" parent="1">
          <mxGeometry x="606.5" y="260" width="130" height="64.87" as="geometry" />
        </mxCell>
        <mxCell id="rcKBmjPD2T-8vvWQDqal-19" value="" style="shape=image;verticalLabelPosition=bottom;labelBackgroundColor=default;verticalAlign=top;aspect=fixed;imageAspect=0;image=https://www.docker.com/wp-content/uploads/2023/05/symbol_blue-docker-logo.png;" vertex="1" parent="1">
          <mxGeometry x="90" y="900.0000000000001" width="161.5" height="113.59" as="geometry" />
        </mxCell>
        <mxCell id="rcKBmjPD2T-8vvWQDqal-20" value="" style="shape=image;verticalLabelPosition=bottom;labelBackgroundColor=default;verticalAlign=top;aspect=fixed;imageAspect=0;image=https://miro.medium.com/v2/resize:fit:1400/1*IdZ8rzHJqSCHpU5HVNFblw.png;" vertex="1" parent="1">
          <mxGeometry x="440" y="346.48" width="270" height="92.48" as="geometry" />
        </mxCell>
        <mxCell id="rcKBmjPD2T-8vvWQDqal-21" value="" style="shape=image;verticalLabelPosition=bottom;labelBackgroundColor=default;verticalAlign=top;aspect=fixed;imageAspect=0;image=https://miro.medium.com/v2/resize:fit:1200/1*srQdUu5yPUu6msmYr_-eQw.jpeg;" vertex="1" parent="1">
          <mxGeometry x="736.5" y="337.34000000000003" width="212" height="110.77" as="geometry" />
        </mxCell>
        <mxCell id="rcKBmjPD2T-8vvWQDqal-22" value="" style="shape=image;verticalLabelPosition=bottom;labelBackgroundColor=default;verticalAlign=top;aspect=fixed;imageAspect=0;image=https://upload.wikimedia.org/wikipedia/commons/a/af/Data_Version_Control._Official_Logo_by_Iterative.ai.png;" vertex="1" parent="1">
          <mxGeometry x="770" y="162" width="120" height="120" as="geometry" />
        </mxCell>
        <mxCell id="rcKBmjPD2T-8vvWQDqal-23" value="Developer" style="shape=umlActor;verticalLabelPosition=bottom;verticalAlign=top;html=1;outlineConnect=0;" vertex="1" parent="1">
          <mxGeometry x="78" y="530" width="50" height="100" as="geometry" />
        </mxCell>
        <mxCell id="rcKBmjPD2T-8vvWQDqal-25" value="User" style="shape=umlActor;verticalLabelPosition=bottom;verticalAlign=top;html=1;outlineConnect=0;" vertex="1" parent="1">
          <mxGeometry x="80" y="667.88" width="50" height="100" as="geometry" />
        </mxCell>
        <mxCell id="rcKBmjPD2T-8vvWQDqal-26" value="" style="shape=image;verticalLabelPosition=bottom;labelBackgroundColor=default;verticalAlign=top;aspect=fixed;imageAspect=0;image=https://miro.medium.com/v2/resize:fit:1000/1*KMQFK22_nox3XYS2tr2n-A.png;" vertex="1" parent="1">
          <mxGeometry x="587.75" y="480" width="300" height="126" as="geometry" />
        </mxCell>
        <mxCell id="rcKBmjPD2T-8vvWQDqal-27" value="" style="shape=image;verticalLabelPosition=bottom;labelBackgroundColor=default;verticalAlign=top;aspect=fixed;imageAspect=0;image=https://miro.medium.com/v2/resize:fit:1400/1*__rLgsJluxueLW4aGP_sMw.png;" vertex="1" parent="1">
          <mxGeometry x="990" y="910.78" width="201.5" height="100.75" as="geometry" />
        </mxCell>
        <mxCell id="rcKBmjPD2T-8vvWQDqal-28" value="" style="shape=image;verticalLabelPosition=bottom;labelBackgroundColor=default;verticalAlign=top;aspect=fixed;imageAspect=0;image=https://www.bigdatawire.com/wp-content/uploads/2023/08/wand-weights-neg-white.png;" vertex="1" parent="1">
          <mxGeometry x="970" y="177.68" width="174" height="104.32" as="geometry" />
        </mxCell>
        <mxCell id="rcKBmjPD2T-8vvWQDqal-29" value="" style="shape=image;verticalLabelPosition=bottom;labelBackgroundColor=default;verticalAlign=top;aspect=fixed;imageAspect=0;image=data:image/png,iVBORw0KGgoAAAANSUhEUgAAAxEAAAEPCAYAAAA9JEmkAAAABHNCSVQICAgIfAhkiAAAABl0RVh0U29mdHdhcmUAZ25vbWUtc2NyZWVuc2hvdO8Dvz4AAAAtdEVYdENyZWF0aW9uIFRpbWUAVGh1IDIzIEphbiAyMDI1IDExOjMwOjQ3IFBNIENFVBB6NrEAACAASURBVHic7N13YBPl/8Dxd5KmTfegpYNV2aiAZRdUkCFSliLILlD2T74oiLJXsWxkC8qUpYAoOAAHyhIVqWxBEGS2dO+kTdLk90c1UNKWBgoB+bz+is89z3OfO7yn97l77k6hzdabEUIIIYQQQohiUto7ACGEEEIIIcSjRZIIIYQQQgghhE0kiRBCCCGEEELYRJIIIYQQQgghhE0kiRBCCCGEEELYRJIIIYQQQgghhE0kiSimXJPJ3iEIIYQQQgjxUHAoamGO3khSWjp6gxGlUoFCoXhQcT10zCYzJrMZR7WK0t5eODio7B2SEEIIIYQQdqEo7GNzZrOZKzcS8XR1JtDP+0HH9dCKTUghLVNHGX8fHFSSSAghhBBCiMdPodOZbiSl4unmIgnEbQL9vPF0dyEhJd3eoQghhBBCCGEXhSYROXoDgb5eDzKWR0agrxd6g9HeYQghhBBCCGEXBSYRxtxcVMrH9/mH4nBQKbkSm2DvMIQQQgghhHjgCkwiHFQqeIwfoi4Ok7nAR0mEEEIIIYT4z5NXvN4lfx9Pe4cghBBCCCGEXUgScZecHNX2DkEIIYQQQgi7kCRCCCGEEEIIYZOHNolITk5mytQoe4chhBBCCCGEuE2JJhFHjx6nUtWnOXv2T0vZ339fonLVpzlx8lSh7QYOHpbvv81mMz4+PkyZPN6m9Y8eO4HklBSb2ty+biGEEEIIIUTRHEq6w/r16rJu/SamR00FYN36TYSEPANAZmYmb709Fk9PT65fv86EcaM5/ccZDv/2G8s+WEmZoEC+/GonTk5OjHnnLUaPncDIEcP5cMVqPli2mDUfrScrM4tOr3TkzZFvs+WTDZb1Hj16nD0/7EWvN/Bu5GTGjp+Eq6sLyckpjHhjGNWrVyNy2gxSUlNJS0ujRfNmODk5WdY9dPCAkt4VQgghhBBC/CeV+HSmqlUrc+nyFdLTM9Bqdfx18SJVqlQGICUllV49ujF75rv07NGNrds+5+WXO+BfujRDBw/AwcEBJycnlix6D5WDCoC6dUKoXq0qyz9cxf79B/m/oYMICgrMl0AAhITUJrhCBSZOGMPWbZ/x5JM1mBEVybixbzNrznuYzWb2HTjI+LHvsPLD96ldu1a+dQshhBBCCCGKp8TvRAC81qUTW7Zuw8XFmZc7tic6+igAjo6O7PrmO37cu5+Y2Fh8fHys2laoUN6qbOCAftRr+BzLli5Eqbxz3nPlylXOnj3H+fN/AaBQKFAoFEybOpHJU98lLS2N8N49qV692r1tqHxLQwghhBBCPIbuSxLRNuwl+kYMQq125MPliy1JxJq166hV82m6de3MR+s2cvbPP1GQ/8NtigJOzGfOfo+Z0yNZ/uFKQhs1QKPRFLhehUKB2WSiQvnylAkKon9EH/R6PddjYsnSanHWOLN08XyysrJo17EzLZo3u6ePxqkdVCSkpOPn7XHXfQghhBBCCPGouS9vZ1Kr1dStE0KN6lVxdHS0lDcObcSn2z5nWtRM1I5qjh0/yYWLf+Pm5sr0mXMK7OvHvfsxmUy83LE94b16EDVjNjExsXTr0ceqbq1aT/PW2+MIa/Mix0+c5O3R4xk4eBjnz/+Fk5MTaz5az+v/G8GYcZN4rcurqFSqItddFGNuLv4+Huiyc0hMTbe5vRBCCCGEEI8qhTZbX+Cl+KtxiVQtH/ig43lkxKekU9rbA5PJxPmrceToDZjv4a6GEHfipFajUqlwd9Xg6eZi73CEEEII8Ri7L9OZHgdZumzw9kCpVFKtgiRb4sFITs8iKTWDjCwdZf1L2TscIYQQQjymCp3OpMvWP8g4HjlPBJW2dwjiMeTj4UqV8gFghrQsnb3DEUIIIcRj6qH9YrUQonClvN3JyJQkQgghhBD2IUmEEI8gHw9XjLm59g5DCCGEEI8pSSKEeETpDQZ7hyCEEEKIx5QkEUIIIYQQQgibSBIhhBBCCCGEsIkkEUIIIYQQQgibSBIhhBBCCCGEsIkkEUIIIYQQQgibSBIhhBBCCCGEsIkkEUIIIYQQQgibONg7ACGEKI7UjCzSM3Vk6w2A2d7hCPEQUqBxVOPh5oyXu6u9g7ELGSeEuJOSGyckiRBCPPRuJKViMpkp4++Nq0aDQmHviIR4+JjNkJWdTVxSOtl6AwGlvOwd0gMl44QQd1aS44RMZxJCPNRSM7IwmcxUKlsaN2c5MRCiMAoFuDlrqFS2NCaTmdSMLHuH9MDIOCFE8ZTkOCFJhBDioZaeqcO/lIe9wxDikeJfyoP0TJ29w3hgZJwQwnb3Ok5IEiGEeKhl6w24ajT2DkOIR4qrRvPPcwGPBxknhLDdvY4TkkQIIR5yZpmaIISN8o6Zx+nBYhknhLDVvY4TkkQIIYQQQgghbCJJhBBCCCGEEMImkkQIIYQQQgghbCJJhBBCCCGEEMImkkQIIYQQQgghbCJJhBBCCCGEEMImDvYO4MjJbLZ9k8HJczlcu2GkarCa2tU19H3VkzL+dg9PiIfS8T8vAxATn4ynuwuuzv+996Nn6bJJy9CCOW97a1erYFN7GVvEY88MF67ewFnjiKebK67OTvaOqERl6bJJy9Shy865q7dUyhghxL1RaLP1BR565y7HULuqbX+0bZGpNTF1USI79mQWuFztoGBIdy/+F+5932IQ4lFmMOaSkaUjISUDJ0c1/qU87R1SiYlLSiNHb8DP2x13V2fUDqpit5WxRYib/qvjRHxSGtl6PX7eHjJGCHEPjp+7TNUKQXfV1m7TmYo6gAEMRjOL16ewfnvaHfs6e/ZPzv914a7iKKptckoKr3TuRlxc/F31fT/98uthevbuV2SdzMxMfty7/676L05bk8nEu9Nn0ap1O1q1bsegIcPIysqyqmc0Gpk1ex5PVH6SLK3WUh4fn0DP3v1o1bodYe1f4fiJkxiNRnqFR3Di5Km7ivtxonZQ4ePpRrXgQBTknXj/F8QlpaEAqgUH4uPpZtPJAZTc2FKcY+x2IXVDAViwcAmLly6zWn7wp58J7zewyD7u5rhdtnwFH65YbVObklbcuP/dR+LB+C+OE3FJaaCAasFBdh0j4O7OPyIGDOHo0eM2tRHiYWSX+3XfH8oq8gC+1ewVyTRt4EL5IHWhdb7e+Q01alSjSuVKNsdSVNvJU95l0IAI/P1L29zvw+D4iVP8uHcfLzR7/r60/fXwb8TG3mD3zh2oVCqGDR/J5i3biOgXnq/eu1GzqFKlEm5ubvnK581fSIsWLxDRN5yjR48zZtwkdn31OTOnTyNiwBB2fr0dB5VtfxwKcvKPc3yx83tcnDVkZmkZ2KcrAf5+99Q+NS2DZas3UibQH4AGdWvT7NmG9xzrnWzdvpM9+w6Rlp6Jp4cbLZo2psvLYVQI8uXPS7Fk6XIe6SkLWboccvQGqgUHArB6w6cc+Pk3AJ4LrU9Er85Fti/pscVWR6N/vuc+Cjv2cnNzURVyPAwdUnRi8iAUd7wpiX1U1L54UJJT0li1fguenu6kp2fS7NmG1AupaXM/12PjGB85jznTxuDn60NsXALrPv4MhUKBs7OG1wf0Qqm07XpfYcfNf2GcuH2MANvGiQdx/mEymYr8N1u9cnmx1i/Ev/b9dJhtX+xm0axJaHXZLFu1EaVCQUaWllfbt+apGlXsEpddkoiNX6QXukylUjB3tB/Rp7PZsCOdHL2ZHd9nFnlbceunn+Hn54tGoyG0UUMmTZlGfHwC2TnZhDZqyJvDX+fYsRNEzZiNg4MDmZmZvDVyOG5ubvnaNn+hqaXPq1evcerUaRYtmAtAr/AIatWqSWpqGkeORDN48ACOHTvOpUuXqVq1ChPHjyExMYkRo0aj1+vRaXV06tSRvuG9AFi4+H327tuPPkdPu7ZtGDpkIBcv/s2kKdNQKJVos7QMGTyAVi2bFxhrs6aF/2E+Ev07UTNmo3HSoNXpGDd6FE89VYNpUTPJzMwkMCCAoUMG8sGKVezbdxCVgwovT09mTo8kR69nxMjRGI0G0tLSCWvTmvDePazaFiS0UUNCG+WdOGu1OlJSUihbtoxVvbdHvYmrqyszZ7+Xr/y7739k3Jh3AAgJqU22Tse1a9cpW7YMNWpUZ/fub2nXtk2h211cKpWSEa9H4OKs4dMduzh99jyXrlzj0OGjlCsTyJ/nL9K4YR2SklM5c+4Cbw7pi4eHW5HtvTw9eC60Hp073oxPp8tm2epNOGucSElNo8srYVSpGHzP8f9r6/adfPblt5b/TkvPtPx3l5fD8PN2JyU965E9OQBIy8jCz9sdyDsx+O7Hg5Zl//4u6gShpMeW7OwcRo4azbXrMQC8v3gB7u5u1HymAefO5F1J3Lf/AB+t28jqlcupVPVpLpzLfxdt3fpNfLJlK5UqVsTb26vI7c/MzMx37NWtE8LipctwdHSkSeNQatV62upYb9iwPgsWLkHloOJ/rw8lpG4ogwcP4NKlS5w69QcTxo+mUcMGha4zS6tl7LhJxMbeICcnh7dGDqfp88+x54e9LFu+AmcXZ0y5uUROmUilShXpFR5B3TohpKSmcuLkKdqFtaFb18754h48qD8TJkVy9uyfKJVKKlQoz5xZUSiVSss+KqifAf37otNlFziGHz58JN++uP1ixYN29twFypcNomuntvx9+Srbv/qOeiE1GRc5j0b1nyEuPhEnR0c8Pdy5FnuDskEBdAxrma8Pg9HIxi07qFo52FK27uPP6N3tFYICSnPm3AX0BgOHo08QffQkSpUKZ2cnBvXpVmhcdzpu/LzdScl4dMeJtEytZYwA28eJ+3n+sWLlGmrUqMbx4yfZsG41n2/fweatn+Gs0aBQKFjw3mz8/UvTtUc4o0a+kVe2cAlVq1YhKSmZK1ev8uGyJfj5+dq6W8R/2I34RE6cPoubqysAV6/F8FxoPRrUrc3lK9fZumMXFYPL3dfzj8LYJYm4fN1QYLmjWsGKqAB8vVVELk2ylF8qpP6/GjVqwIutWtD8haYsWbqcCuXLMWdWFGazma49wnm2SSgbNn5Cv769CWvTmvj4BA79/AvNmj6fr+2tDhz8idDQRigUCgCUKhUeHh68M2oEm7dsY+HCpfy4ZxdmoHZIQ8aOHkVMbCxdXn2FDu3bkpOTQ/1Gz9G9axeOnzjFvn0H+HTzRnJzc4kYMIRXO73MuAlT6B8RTquWLYiLiyesfSeaNA5l7boNVrEWJT4+gYnjx1An5BmORP/OzFnz+HTLRvqG9+KPM2cYOmQgR6J/5+BPP7Nx/WoUCgXz3lvEmrXr8fX1pUKFckROmYjJZGLtug24uLjka3sno94Zx5df7aR71y682KqF1XLXf/7Hv5XRaCQrKwtPTw9LmV9pP27ExVG2bBmef/5Z9u47UCJJxJPVKnPx0lXWffwZKpWK0W8O5uiJP3Bzc6HLy23Y+e1ebsQn0qNzez7dsYsz5y7QsF7tItv/cuQof5z9i8Vx6zAac+nU/kWMxlxMJhMDwl8jR29Aq9Xdc+y32rPvUKHlXV4Ow93VmWvxySSnZ6Ky8crlw0Kbrad8YN4f0H+vLN7qwM+/FZlElPTYcur0HyxdMp8Af38i353BqjUf8ebw14uzKQCkpKYyf8Fi9u/9Fnd3dyKnzSiyvpubW75j7+jR4/z++zH27/2WUqVKsXPXNwUe67fK0mqpXetphgzqz9c7d7P2ow1FJhErV60lKDCARQvmcu78X8ydt4C6dUIYPXYCu77ajp+fLzt3fcPkqe+yYd1qlP/cAYicMpHk5GSatwpjQP+++eJOTk6mXLmyRE2bjEKhoFd4BId+/pVnm9ycylRYP6tWry1wDFer1fn2hb01qFubH/b/zLwlq0hISmZovx4AGAwGnm1UDx9vTwYOH8fiOZNRq9WMmzrXKonYvO0r2r3UnG/2HLCUJSalcOToSa5dv4FvKW+qV6nIz78d5ZW2raha+QkuX7le5JXuOx037q7OXI9PIS1Ta1XvUaDV5VA+4Oa/v63jxP08/1i7bgOOajXbtm4CID0jk1Ufvo+vbymWLF3O+o0fM2rkG5a2KqWK4ydO8f6ShXh4uDNxciRf79ptufgoRG5uLus/+ZzBfbszc8EHAFSrUtGy/LejJ6kXUpOYG/H39fyjMHZJIpJSci2/54wpzdVYAyu3pLEyKgAXZwU9RsSQlmmy1ElIzi2omwIdPhJNfHwCB37KO+FKT0vn8pWrtGvbhimRURw58jvPP9+EDu3bFtnP9ZhYygQF5iur+fRTAPj6lqJ69aqW2+nubm5k/HMFbuOmT9i1+1tUKhV6vYH09Ayio3+nQf26qFQqVCoVG9blzV0+euw4TRo3BsDfvzS+pXy4dOmyzbGWKRPEBx+uQqlUotVqSU5Jsarz22/RXLhwkW49+wCQrcumZs2n6dihHcs/WMHIUaN57tkmdH2ts823zufOns7UKRN4c8TbrFr9Ef0j+hSr3b8JmoXZbCkrGxRETEysTXEUpWJwOaaMfYOd3+7li13fU65MED5eeVeFHR3VeP+TzKjVagwG6z8at7dv2awJVSs9QYC/HzfiEliwfC0zJ79NSK0nee/9NaiUSrq92q7E4oe8Ow9FlasdVJhNZhJTCr/S9tAzY5nfnJ2dY7W4oLJblfTYUqNGNQL886as1a9Xl0+3fV7sTQG4cOEi5SuUx90978ppaGhD/rp40aY+KlZ8wnLSXJxjHaBOyDMAlCrlQ2pq0fO6o38/SkTf3gBUrVKZD5cv4ejR4wQFBlquiIaGNmT02Ik3+6+T17+PT8H9e3p6os3SMnjo/3B0dOTvS5dJKSDWgvopbAyvGBycb1/Y2559P1G7Zg3av9SchMRklq7cwJQxwwHw8c57eNnD3Q2NU94Vf5PJlK/98VNnUavVPFmtcr4kIjk1jReea4S7mysfrPmYYyfP0Ld7J77YtYfNn33N009Wo0J56zu+/7rTcaN2UGEymYhLSr37jbenW8YIsH2cuJ/nHwD169ez/A4M8Gfs+Ek4OTlx9eo1nnrqSav6lSo9gYdH3vhQqpDjSTy+tm7fxYvNn803OwIgR69n45YdlC8bZJlKfT/PPwpjlyQiuKyaMxf0AKzaksq6OYH07ujJ39cM9B4VS0aWyap+cSkVSka8MYzWL7a0WtawQT1+/uUwGzdt5rPPv7BMVSqI2Wz90iqVSnnL7/zzcc1mMzNmzSE4OJhZM4ZiNpupFXJzjnzubX9AzP+cMJtveS9d3tUlBS1bvGAVa78+vRn2xkgABg2IoFq1m/PfhvzfcBbOn0uD+nU5dfoPhr85yip2hVJJ61YtmTxpnNWy77/9mujoo3y35wcWLlrK7p07Ct0vtzr75znMJhM1alTH1cWFjh3aseOLr4qVRDg4OODm5kpqahpeXnl/cG/ciCcwICBv/2Dm9hzjbi364CO6dWpHab9S+Ph4EX8u+Z7b34hLRK3OO3xcXJwxmUwkJiXzVPUqtGjamNNnz7P9q+8YNqh3yWwE4OnhVmAi4fnP4GIw5qJQKnB3ccaYm4sx14TeYEClVOLqosHNWYODjQ8gPmjX45IwGHNRO6jQaJysTgY0mqKnYJT02KJU3DzmlUolCoXCKvk1Gu9wkmHOf4zbysnp5jYX51gHUDncHNrNxXj3ZW5u0XGZ/xmbLP2riv7Tse2z7Rw7cYI1qz7AQaViwKD/KzjOAvopbAw/evR4vn1hbxmZWnxL5U1zcXV1ISvLtiv7v/x2FGNuLstWbeLipats2LKDYYN6U75sIGZT3r+Zq4szRqOR+MRkBvbpitlsJmru+4TWf6bQ57rudNwYjLmoVErK+D8cyZitbh0j4M7be7v7ef4BN4/XS5ev8O70WXyz6wt8vL1ZuWotF/++ZFXf4fZjoIBzD/F4ys3N5cy5C6SkpnPo16MkJCWz7YvdtH+pBYuWf0Sn9q2p9ER5gPt+/lEYuyQRT1Z2shzEZy/qee2NGIaHezNhfiJanfUfs6erFP2HQ6lUWAaR+vXq8NXXu2j9YkvMZjPTomYyeGB/Pt32Od275U23qVnzKbp07WXV9lZlggI5/cdZm7YrISGR5i80A+DrnbsxGAwYDAbq1glh0tR3MRgMKBQKwvsOZMb0qdQJeYaDBw/R+sWWXL8eQ1p6OsHBFVj6/gdWsS5aMJef9u+xrOuXXw8DeclIUlIyFZ8IBmD7ji8tV9Jv3y8j3xrD26NG4OLizIaNH1OpUkVSU9Pw9S1Fw4b1adiwPt9//wNJScn52up02Vy/fp3Ktz18fuHCRVavWcfHG9fi6OjIoUO/ULVqXnJz+coVvL28LVdYCvJiq5Zs+2w7/SP6cPjwEXxKeRP0z92f6zGxBAXd3SvHbtemZVM+XPsJzs4acnJyGNinGxcvXb2n9rkmEys/2oxG44Rer6dvj1cBWLtpG26uruTo9bRs1qRE4v9Xi6aN8z0TcWs5QEaWDleNEwG+N+fdp2fqSMvUkp6pJSNTh5eHK37eHlZ9PCycnRzJyNLh4+nGc6H18811hryHJotS0mPL2T//JDklBR9vb6J/P0qN6tVxdHRE7eBARkYG7u7uHDkSXWj7ihWf4NLly6SlpePp6cHefXd+e1FhY1JRx/q9qFsnhD0/7KVF82bExMQybPhI1n+0kpjYWOLjEyhd2o8DBw9Z7m4UJ+6EhETKlyuHg0rF35cuc/zESdq0aV2seAobwx82rV5owsp1Wzj319+kZ2TSq2tHm9oP7tfd8nv++2vo9VpH1A4OhHfrxLI1m3ByVKN2cKDOM0/z1a4f2PXdXtzdXCnl44WfX+EJwJ2Om4wsHc4aRzSOJfdCgQfJWeNkGSPgztt7u/t5/nGrpKQkPDw88PH2RqfL5ptvvyc4+P69Nl/896hUKqaOvTn9bVzkPF7t8BJfffMDsTfi2f71dwB4eXrQMazFfT3/KIxdkoheHT3Y/n0mubl5GfelawZGTi/4Nap+PirCmlnPqb9V49BGzJk7H4PBQES/PkycHEnn13qSa8qlUYP6+PuXplKlivSNGIyLiwsGg4HxY9+xatv1tVctfT77bGM+XLHGcsegOAb070vU9Nl8snkrLzRrSscObRkxajSbN62jzUsv8nKnrpjMZjq0C6NC+fJETZvMxMmRbNj0CTqtjnmzZ6DRaAqNtSAKhYLhw4bSp99AfHy8GdC/L3v3HeC9+Yto27YNc+YtYOLkSKZNnUTPHl3p3rMPThonvL286NC+HfHx8YwdPxmlSonRYKR9u7aUKRNE7dq1LG07vdyREW+9w94fvsm37rZhL3Hq9B+Ete+ESqmkSpXKjBv7NgDjxk+mW9cutG8XRs/e/UhISCQrK4uOr7yGt5cXWzdvYOSb/+ONEaP4ePNWnDUa5syKsvS9f/9BWrVsXqz9fidVKgUz4e3889j9fH0szz3cerDdPme5sPZAgWVjRgy513AL1eXlMIAC384EkJCSQSmv/Embh5szHm7OZGqzScvUkpKeid5gpExpn/sW573wdHclISUDH083y5xmW97OVJJjS26uiVo1axI1fTbxCQnkGnNZsmgeAK//32D69BtEjRrVcXdzxWQq+Oqhj7c3w4f9H1269qRs2TJUrlwJs+l6kdtw+7H3r6KOdVunIN5qQP++jBk7kY6vvIbRaLS8CGH2zCj+b9ibOLs4AxA1bXKx4x46eCCDh/6PHr36Ua5cGd4a8QZLli6nXt2QO8ZT2BhektMbS4KnhztvDbNObuZMG2P5PS9qXIHltxvxfzdfJfxEhbKMfmNQvuUd21qPS4W503FT0DjxKPF0cyEhJd2SRNg6TtzP849bPVO7FhWfCKZL1154eLjzv9eH8M6YCXy/58dibacQt5s+6S0A2rVuTrvW1udH9/P8ozB2+9jcsk2pzF9z52klG+YF0aCWfb7GO2z4SMLatCasmFfQ/svGjZ/M9KipD2RdV69eI2LAEHbt3FEir3h9HFyOScQMd/yQVHxyGqkZWTioVJQP9H0o9++/34moEHR3byh5FMYWIeyhuOPEwy4uKQ2FAioEyhghxL26l4/N2e277kO6e+HkqGDuqmSMRus8xtNNyZwxpe16AEdOmUDEwKHUrRPyyH4roiRkZGTQtgTeklQcRqORMeMmMm/uzIfyBPdhcjdfoi3t44lKqSQpLYOL1+IoF+CLs5PjA4i2+PxLeRKXlMafl2Lv6ovVj8LYsmz5Cn4rYBpUYGDgHa/4PwrrEw+P/+IXq/1LeRKf/N8eI4R4FNjtTsS/Tp3L4Ys9mcQnGUnNMOHrrSLQz4HwVzzx85GTSCEKcvzPywC4uWjwdHfB1dm2P3bZOQau3EgAoHK5gHuaDnO/ZOmyScvQkqnNBqB2NdvGIxlbxOPu2J+XcVApcdY44ulm+zjxsMvSZZOWqUOXnUNurknGCCHuwr3cibB7EiGEuDv3cuADmMxm/roSi5OjmgqBxf+C94MmY5EQd+dex4hHiYwTQtydexknHr7Lj0KIB0KpUFAuwJccveHR/raEEEIIIR44SSKEeIw5OzlS2seL5PRMUjOy7B2OEEIIIR4RkkQI8ZjzcnfBy82V+OQ0cvT3/t0BIYQQQvz3SRIhhMDb0w2lQkl6ls7eoQghhBDiESBJhBACtYMKd1cN6Zk6cnOtv9oqhBBCCHErSSKEEAC4uzqTa8olPUtr71CEEEII8ZCTJEIIAYCLxglnJyfSMx+2KU0KzAW+iFoIUZi8Y0Zh7zAeIBknhLDVvY4TkkQIISxcXZzIMRjQG4z2DsVC46gmKzvb3mEI8UjJys5G46i2dxgPjIwTQtjuXscJSSKEEBaODg4AGIwPTxLh4eZMXJJ8x0IIW8QlpePh5mzvMB4YGSeEsN29jhOSRAghLJz+uSLxMN2J8HJ3RalUcOFaPJm6bJmyIEQhzGbI1GVz4Vo8SqUCL3dXe4f0wMg4IUTxlOQ44VCCcQkhHnFqBxUqpRK9IdfeI8rWKgAAIABJREFUoeQTUMqL1IwsrselkK03AHKGIIQ1BRpHNR5uzo9VAvEvGSeEKI6SGyckiRBC5OOoVj9UdyL+5eXu+lieGAkhik/GCSEeHJnOJIQQQgghhLCJJBFCCCGEEEIIm0gSIYQQQgghhLCJJBFCCCGEEEIIm0gSIYQQQgghhLCJJBFCCCGEEEIIm0gSIYQQQgghhLCJJBFCCCGEEEIIm0gSIYQQQgghhLCJ3b9YfeRkNtu+yeDkuRyu3TBSNVhN7eoa+r7qSRl/u4cnhBBCCCGEuI3dztIztSamLkpkx57MfOXHzuRw7EwOm75MZ0h3L/4X7m2nCIUQQgghhBAFsdt0poISiFsZjGYWr09h/fa0BxiVEEIIIYQQ4k7skkR8fyiryATiVrNXJHMlxlBknbNn/+T8XxfuKpai2ianpPBK527ExcXfVd/30y+/HqZn735F1snMzOTHvfvvqv/itDWZTLw7fRatWrejVet2DBoyjKysLKt6RqORWbPn8UTlJ8nSai3lp07/wQstXiJqxmxL2YyZc1m3ftNdxSyEEEIIIR4MuyQRG79IL3SZSqVg/rjS9OroAUCO3syO74tOOL7e+Q3nz/91V7EU1XbylHcZNCACf//Sd9W3vR0/cYof9+67b21/PfwbsbE32L1zB9998xWOjo5s3rLNqt67UbMoW7YMbm5ulrJr164zfcYcWrZsnq/uO2+PYNPHm7l0+cpdxV1cScmpzFr4IfOWrGLa7CUcOXrSpvZaXTbzlqxi/tLVRM5ewukz5+9TpEIIIYQQDx+7PBNx+XrBdxYc1QpWRAXg660icmmSpfxSIfX/tfXTz/Dz80Wj0RDaqCGTpkwjPj6B7JxsQhs15M3hr3Ps2AmiZszGwcGBzMxM3ho5HDc3t3xtm7/Q1NLn1avXOHXqNIsWzAWgV3gEtWrVJDU1jSNHohk8eADHjh3n0qXLVK1ahYnjx5CYmMSIUaPR6/XotDo6depI3/BeACxc/D579+1Hn6OnXds2DB0ykIsX/2bSlGkolEq0WVqGDB5Aq5bNC4y1WdPnC93+I9G/EzVjNhonDVqdjnGjR/HUUzWYFjWTzMxMAgMCGDpkIB+sWMW+fQdROajw8vRk5vRIcvR6RowcjdFoIC0tnbA2rQnv3cOqbUFCGzUktFFDALRaHSkpKZQtW8aq3tuj3sTV1ZWZs9+zlPn6lmLdRytZt24jsTduWMpVKhV9wnuxYuUaoqZNLvLf/V7k5OTQu+vLBAWU5vTZ8/yw/2eqVnqCWQs/IKTWU1y6co3qVSuSk2Pgz/MX6RjWkqdqVLG0v3othudC69Ggbm0uX7nO1h27qBhcjmWrN+GscSIlNY0ur4RRpWLwfdsGIYQQQgh7sUsSkZSSa/k9Z0xprsYaWLkljZVRAbg4K+gxIoa0TJOlTkJybkHdWDRq1IAXW7Wg+QtNWbJ0ORXKl2POrCjMZjNde4TzbJNQNmz8hH59exPWpjXx8Qkc+vkXmjV9Pl/bWx04+BOhoY1QKBQAKFUqPDw8eGfUCDZv2cbChUv5cc8uzEDtkIaMHT2KmNhYurz6Ch3atyUnJ4f6jZ6je9cuHD9xin37DvDp5o3k5uYSMWAIr3Z6mXETptA/IpxWLVsQFxdPWPtONGkcytp1G6xiLUp8fAITx4+hTsgzHIn+nZmz5vHplo30De/FH2fOMHTIQI5E/87Bn35m4/rVKBQK5r23iDVr1+Pr60uFCuWInDIRk8nE2nUbcHFxydf2Tka9M44vv9pJ965deLFVC6vlrq6uVmUajabQ/po+/yxLl31wx/Xei6BAfwwGAzPnLychMZm3hvVHoVSg1WXTueNLXLpyjZXrtvDuhJGcPnuew9HH8yUR1apUtPz+7ehJ6oXUJOZGPCaTiQHhr5GjN6DV6u7rNgghhBBC2ItdkojgsmrOXNADsGpLKuvmBNK7oyd/XzPQe1QsGVkmq/rFdfhINPHxCRz46RAA6WnpXL5ylXZt2zAlMoojR37n+eeb0KF92yL7uR4TS5mgwHxlNZ9+Csi7il69elVUKhUA7m5uZPxz1X7jpk/YtftbVCoVer2B9PQMoqN/p0H9uqhUKlQqFRvWrQbg6LHjNGncGAB//9L4lvLh0qXLNsdapkwQH3y4CqVSiVarJTklxarOb79Fc+HCRbr17ANAti6bmjWfpmOHdiz/YAUjR43muWeb0PW1ziiVts1ymzt7OlOnTODNEW+zavVH9I/oY1P72wUE+BMfn4DZbLYkcfeDWq1mzIgh/H05L2EY8XoE3l6eADiq1Td/O6oxGIxW7XP0ejZu2UH5skE0ezbvjkxIrSd57/01qJRKur3a7r7FLoQQQghhT3ZJIp6s7GRJIs5e1PPaGzEMD/dmwvxEtDqTVf2nqzgVu2+lQsmIN4bR+sWWVssaNqjHz78cZuOmzXz2+ReWqUoFMZvNVmUqlfKW3yqr+jNmzSE4OJhZM4ZiNpupFdLQsjzXZLKqr1AoMHNzPSaTCaVSQcsWL1jF2q9Pb4a9MRKAQQMiqFbt5lXxIf83nIXz59Kgfl1Onf6D4W+OsopdoVTSulVLJk8aZ7Xs+2+/Jjr6KN/t+YGFi5aye+eOQvfLrc7+eQ6zyUSNGtVxdXGhY4d27Pjiq3tOIh6EXd/vw8PdjSYN61LK24ssG+8a6PUGFi3/iE7tW1PpifIAJCYl81T1KrRo2pjTZ8+z/avvGDao9/0IXwghhBDCruzyYHWvjh6oVDevMF+6ZmDk9PgCEwg/HxVhzaynw9xKqVSQnZ0DQP16dfjq611A3ol65LsziIuLZ+n7H2AwGHixVQsip07k96PHrNreqkxQINdjYm3aroSERCo+EQzA1zt3YzAYMBgM1K0TwoGDhzAYDBiNRnr06seVq1epE/IMBw/m3TG5fj2GtPR0goMrFBhrSEhtftq/h5/276FPeE/LOs1mM0lJyZb1bt/xJQaDocD98sOP+yxTbDZs/Jiff/mVXbu/5eix4zRsWJ8J40YDkJSUnK+tTpfNXwW8werChYtMmBSJXp+XEB469AtVq+YlN5evXCE9PcOm/fevGzfi8PcvfV/vQjRpWJeDv0Qzd/FKFixfS48uHWxq/+2PB4i9Ec/2r79j3pJVrFq/FYC1m7ax5MP17P5+P881rn8/QhdCCCGEsDu73Il4qooTw8O9mb8m+Y5154/3x82l6FyncWgj5sydj8FgIKJfHyZOjqTzaz3JNeXSqEF9/P1LU6lSRfpGDMbFxQWDwcD4se9Yte362quWPp99tjEfrlhj05SaAf37EjV9Np9s3soLzZrSsUNbRowazeZN62jz0ou83KkrJrOZDu3CqFC+PFHTJjNxciQbNn2CTqtj3uwZaDSaQmMtiEKhYPiwofTpNxAfH28G9O/L3n0HeG/+Itq2bcOceQuYODmSaVMn0bNHV7r37IOTxglvLy86tG9HfHw8Y8dPRqlSYjQYad+uLWXKBFG7di1L204vd2TEW++w94dv8q27bdhLnDr9B2HtO6FSKqlSpTLjxr4NwLjxk+nWtQvt24XRs3c/EhISycrKouMrr+Ht5UX/iD68N38RKampGA1G9u07wLDXh9ChfVv27T9I0+efK9Y+v1se7m6MfmOQVfmkd4YBec9MvDWsPwBVKgZbPSDdrnVz2rVufntzxowYUvLBCiGEEEI8ZBTabL31vB3g3OUYaletcN9WbDbDmm1pzF2VjNFoHYKnm5I5Y0rTrKHLfYvhToYNH0lYm9aEtWlttxgeFuPGT2Z61NT7vp7c3Fzatu/E8mWLCa5Q/r6v71F2/NxlqlYIKvF+r97IezNauYBSJd63EEIIIf4b7HInAkChgIjOnjSopeGLPZnEJxlJzTDh660i0M+B8Fc88fNR3bmj+yhyygQiBg6lbp2QR/ZbESUhIyODtm3bPJB1zZrzHt27vSYJhBBCCCHEQ8xudyKEEPdG7kQIIYQQwl7s8mC1EEIIIYQQ4tElSYQQQgghhBDCJpJECCGEEEIIIWwiSYQQQgghhBDCJpJECCGEEEIIIWwiSYQQQgghhBDCJpJECCGEEEIIIWwiSYQQQgghhBDCJnb7YrUQ4vGVmpFFeqaObL0BKPB7l0KIB0KBxlGNh5szXu6u9g5GCPEIkSRCCPFA3UhKxWQyU8bfG1eNBoXC3hEJ8fgymyErO5u4pHSy9QYCSnnZOyQhxCNCpjMJIR6Y1IwsTCYzlcqWxs1ZEggh7E2hADdnDZXKlsZkMpOakWXvkIQQjwhJIoQQD0x6pg7/Uh72DkMIUQD/Uh6kZ+rsHYYQ4hEhSYQQ4oHJ1htw1WjsHYYQogCuGs0/zykJIcSdSRIhhHiAzDKFSYiHVN6xKS86EEIUjyQRQgghhBBCCJtIEiGEEEIIIYSwiSQRQgghhBBCCJtIEiGEEEIIIYSwiSQRQgghhBBCCJtIEiGEEEIIIYSwiSQRQoh81A4qjLm59g5DCCGEEA8xB3sHcORkNtu+yeDkuRyu3TBSNVhN7eoa+r7qSRl/u4cnxGPHUe1AepYWk8mMUikfdRBCCCGENbudpWdqTUxdlMiOPZn5yo+dyeHYmRw2fZnOkO5e/C/c204RCvF4UqtVAOgNBjROjnaORgghhBAPI7tNZyoogbiVwWhm8foU1m9Pe4BRCSHUDnnXFvQGo50jEUIIIcTDyi5JxPeHsopMIG41e0UyV2IMRdY5e/ZPzv914a5iKaptckoKr3TuRlxc/F31fT/98uthevbuV2SdzMxMfty7/676L05bk8nEu9Nn0ap1O1q1bsegIcPIysqyqmc0Gpk1ex5PVH6SLK3WUn7t2nW69+xLm3av8FJYR37cux+j0Uiv8AhOnDx1V3GLe6d2yLsTka0v+rgTQgghxOPLLknExi/SC12mUimYP640vTp6AJCjN7Pj+6ITjq93fsP583/dVSxFtZ085V0GDYjA37/0XfVtb8dPnOLHvfvuW9tfD/9GbOwNdu/cwXfffIWjoyObt2yzqvdu1CzKli2Dm5tbvvIJkyLp0L4tu776nPnzZjHqnXE4ODgwc/o0Rr09tsQe7r185TrT573P/PfXEDX3fZJTbLu7VVD7s+cu8saYacxe+CGzF37I3oO/lkisDwOVUomHqwsZWTp5wFoIIYQQBbLLMxGXrxd8hdNRrWBFVAC+3ioilyZZyi8VUv9fWz/9DD8/XzQaDaGNGjJpyjTi4xPIzskmtFFD3hz+OseOnSBqxmwcHBzIzMzkrZHDcXNzy9e2+QtNLX1evXqNU6dOs2jBXAB6hUdQq1ZNUlPTOHIkmsGDB3Ds2HEuXbpM1apVmDh+DImJSYwYNRq9Xo9Oq6NTp470De8FwMLF77N33370OXratW3D0CEDuXjxbyZNmYZCqUSbpWXI4AG0atm8wFibNX2+0O0/Ev07UTNmo3HSoNXpGDd6FE89VYNpUTPJzMwkMCCAoUMG8sGKVezbdxCVgwovT09mTo8kR69nxMjRGI0G0tLSCWvTmvDePazaFiS0UUNCGzUEQKvVkZKSQtmyZazqvT3qTVxdXZk5+7185XNnT8fLyxOAsmXLkJ2djclkomzZMtSoUZ3du7+lXds2Rf7bF8eFS1cI796JskEB7PpuH7/8dhQfb08OHT5KuTKB/Hn+Io0b1iEpOZUz5y7w5pC+eHi4Fdnev7Qvz4XWo3PHm/HpdNksW70JZ40TKalpdHkljCoVg+85fnvwcHUmPUtLRlY23h6u9g5HCCGEEA8ZuyQRSSk3r27OGVOaq7EGVm5JY2VUAC7OCnqMiCEt02Spk5Bc9NXQRo0a8GKrFjR/oSlLli6nQvlyzJkVhdlspmuPcJ5tEsqGjZ/Qr29vwtq0Jj4+gUM//0Kzps/na3urAwd/IjS0EQpF3ttplCoVHh4evDNqBJu3bGPhwqX8uGcXZqB2SEPGjh5FTGwsXV59hQ7t25KTk0P9Rs/RvWsXjp84xb59B/h080Zyc3OJGDCEVzu9zLgJU+gfEU6rli2Ii4snrH0nmjQOZe26DVaxFiU+PoGJ48dQJ+QZjkT/zsxZ8/h0y0b6hvfijzNnGDpkIEeif+fgTz+zcf1qFAoF895bxJq16/H19aVChXJETpmIyWRi7boNuLi45Gt7J6PeGceXX+2ke9cuvNiqhdVyV9eCT0J9fUtZfi9c/D7du3VBqcy7Ofb888+yd9+BEkkimj8fCkBubi6nzpyje+f2XI+Jw83NhS4vt2Hnt3u5EZ9Ij87t+XTHLs6cu0DDerWLbH/x0hX+OPsXi+PWYTTm0qn9ixiNuZhMJgaEv0aO3oBWq7vn2O3FxdkJF40TGVk6SSKEEEIIYcUuSURwWTVnLugBWLUllXVzAund0ZO/rxnoPSqWjCyTVf3iOnwkmvj4BA78dAiA9LR0Ll+5Sru2bZgSGcWRI7/z/PNN6NC+bZH9XI+JpUxQYL6ymk8/BeSd/FavXhWVKm/uuLubGxn/XLXfuOkTdu3+FpVKhV5vID09g+jo32lQvy4qlQqVSsWGdasBOHrsOE0aNwbA3780vqV8uHTpss2xlikTxAcfrkKpVKLVaklOSbGq89tv0Vy4cJFuPfsAkK3LpmbNp+nYoR3LP1jByFGjee7ZJnR9rbPlRL645s6eztQpE3hzxNusWv0R/SP6FLvtv89VxMTEsnjhPEt52aAgYmJibYqjKAmJyWzYvJ0OYS0pGxTA9Zg4fLy8AHB0VOPtmTd9Tq1WYzBY3/m6vb2bqwtVKz1BgL8fN+ISWLB8LTMnv01IrSd57/01qJRKur3arsTitwcPNxduJKaQqc3GzUVj73CEEEII8RCxSxLxZGUnSxJx9qKe196IYXi4NxPmJ6LVmazqP13Fqdh9KxVKRrwxjNYvtrRa1rBBPX7+5TAbN23ms8+/sExVKojZbLYqU6mUt/xWWdWfMWsOwcHBzJoxFLPZTK2QhpbluSaTVX2FQoGZm+sxmUwolQpatnjBKtZ+fXoz7I2RAAwaEEG1alUs7Yb833AWzp9Lg/p1OXX6D4a/OcoqdoVSSetWLZk8aZzVsu+//Zro6KN8t+cHFi5ayu6dOwrdL7c6++c5zCYTNWpUx9XFhY4d2rHji6+KnUSYzWbeenssnh4evL9kQb7kxYwZRQl9oiAmNo6NW79gUN9ueHq4l0j7G3GJqNV5h4+LizMmk4nEpGSeql6FFk0bc/rsebZ/9R3DBvUumY2wAw9XZ9IztdxISqWsqhQap+In80IIIYT4b7PLg9W9OnqgUt08Q7x0zcDI6fEFJhB+PirCmhU9nUKpVJCdnQNA/Xp1+OrrXUDeSWrkuzOIi4tn6fsfYDAYeLFVCyKnTuT3o8es2t6qTFAg1228Ep6QkEjFJ4IB+HrnbgwGAwaDgbp1Qjhw8BAGgwGj0UiPXv24cvUqdUKe4eDBvDsm16/HkJaeTnBwhQJjDQmpzU/79/DT/j30Ce9pWafZbCYpKdmy3u07vrRcSb99v/zw4z7LFJsNGz/m519+Zdfubzl67DgNG9ZnwrjRACQlJedrq9Nl81cBb7C6cOEiEyZFotfnJYSHDv1C1ap5yc3lK1dIT88ocn99sGI1Go0TUyaPt7r7cT0mlqCgoOLs9jvasGUHmVlaVq7bwrwlq/j2h4P33N7Ly4OPP/2SuYtXsuTDdfTt8SoAazdtY8mH69n9/X6ea1y/ROK3J/9SXigVCm4kWt/dEkIIIcTjyy53Ip6q4sTwcG/mr0m+Y9354/1xcyk612kc2og5c+djMBiI6NeHiZMj6fxaT3JNuTRqUB9//9JUqlSRvhGDcXFxwWAwMH7sO1Ztu772qqXPZ59tzIcr1ljuGBTHgP59iZo+m082b+WFZk3p2KEtI0aNZvOmdbR56UVe7tQVk9lMh3ZhVChfnqhpk5k4OZINmz5Bp9Uxb/YMNBpNobEWRKFQMHzYUPr0G4iPjzcD+vdl774DvDd/EW3btmHOvAVMnBzJtKmT6NmjK9179sFJ44S3lxcd2rcjPj6eseMno1QpMRqMtG/XljJlgqhdu5albaeXOzLirXfY+8M3+dbdNuwlTp3+g7D2nVAplVSpUplxY98GYNz4yXTr2oX27cLo2bsfCQmJZGVl0fGV1/D28mLr5g2sXLUGVxdXXnypvaXPVSuWUa5cWfbvP0irls2Ltd/v5J03BhVY/u9zDy2bNbGUdQyzvoNVWPsJb79uVTZmxJC7CfGhpXZQEeDrzbW4RK7eSKRcgK+9QxJCCCHEQ0ChzdZbz9sBzl2OoXbVCvdtxWYzrNmWxtxVyRiN1iF4uimZM6Y0zRq63LcY7mTY8JGEtWlNWJvWdovhYTFu/GSmR019IOu6evUaEQOGsGvnDhxumzYmbjp+7jJVK5TM3Zo7+XdaUylPd0p52T4l7F/3e1wRQtybBzmuCCEebXa5EwGgUEBEZ08a1NLwxZ5M4pOMpGaY8PVWEejnQPgrnvj52PcEMnLKBCIGDqVunZBH9lsRJSEjI4O2JfCWpOIwGo2MGTeReXNnSgLxEPFwc8FgzCUpLQODMZcAXy+b2mfpsknL1IE57yTlQSQSR05ms+2bDE6ey+HaDSNVg9XUrq6h76uelPG329AnhBBC/CfY7U6EEOLe2OOKoS5bz9W4RJydHAnw9bZ83boo8clpZOcY8PN2x93VuVht7kWm1sTURYns2FPwRyrVDgqGdPfif+He9zUOIR5FcidCCFFcdnmwWgjxaHLWOBIcVJpck5mrNxLJ1GYXWT8uKRXMUC04EB9Pt/ueQABFJhAABqOZxetTWL+96C+X//LrYXr27mfTukPq5n1TZMHCJSxeusxq+cGffia8352/vfKoyMzM5Me9+4us89uRaAYOHvaAIhJCCPGgyD19IYRNHNUOlPMvRVxSKjEJyWgcHXF3dcbdVZNvClqWLoccvYFqwXlXNbdu38mefYdIS8/E08ONFk0b0+XlsBKN7ftDWUUmELeavSKZpg1cKB9Ucq+uPRr9c4n19Sg4fuIUP+7dxwvNni+0Tv16dalfr+49rys3N9fq1doPSk6Onu1ff8fu7/ezcskMVEolZ89dZNnqjZQJ9AegQd3aNHu24R16uikpOZWV67fgoFKh1epo06op9UJq8tOv0ew98CtOTo44O2sYEtEDlY3f7hFCiAdBkgghhM1UKiVBpX1Iz9KRnqklISWN5LQM3F2dcXJU46h2IC0jCz/vvI/4bd2+k8++/NbSPi090/LfJZlIbPwivYiYFcwd7Uf06Ww27EgnR29mx/eZRU5rys7OYeSo0Vy7HgPA+4sX4O7uRs1nGnDuzHEA9u0/wEfrNrJ65XIqVX2aC+dO5etj3fpNfLJlK5UqVsTb+87PkiQmJjFi1Gj0ej06rY5OnTrSN7wXPx36hSVLl1O+fFlSUlLJyMhk8cJ5eHt7UeuZBgwdMpCTp05zIy6eSRPGULdOSKHryNJqGTtuErGxN8jJyeGtkcNp+vxz7PlhL8uWr8DZxRlTbi6RUyZSqVJFeoVHULdOCCmpqZw4eYp2YW3o1rUz06JmkvnPhza7dO5UYNy//HqYxUuWsXH9mgL7GdC/LzpdNpOmTCM+PoHsnGxCGzXkzeGvc/jwERYvXYajoyNNGocS0S/8jvvvfoiNi6dxgzocjj6ebx8+F1qPzh3zPy82LnIejeo/Q1x8Ik6Ojnh6uHMt9gZlgwLyvf0tJyeH3l1fJiigNKfPnueH/T9TL6QmV67G8M6bg1A7ODBvySquXovhyrVYoo+eRKlS4ezsxKA+3R7YtgshRGEkiRBC3DUPV2c8XJ3R6nJIz9KRmpF1y1IF5QPzXgm7Z9+hAtvv2XeoRJOIy9etvzYO4KhWsCIqAF9vFZFLkyzllwqp/69Tp/9g6ZL5BPj7E/nuDFat+Yg3h1u/2rcwKampzF+wmP17v8Xd3Z3IaTPu2CYmNpYur75Ch/ZtycnJoX6j5+jetQsqlZITJ0/x4fLFuLu7M3vufFavXcc7o0aQpdVSp84zDHt9CAcO/ETU9Nl89unHha5j5aq1BAUGsGjBXM6d/4u58xZQt04Io8dOYNdX2/Hz82Xnrm+YPPVdNqxbjfKfOwCRUyaSnJxM81ZhDOjfl77hvfjjzBmGDhnIiZOnCoz7VoX1s2r1WiqUL8ecWVGYzWa69gjn2SahqNVqfv/9GPv3fkupUqWKvd9LWnD5slZlWVotf5z9i8Vx6zAac+nU/kUqlCuDwWDg2Ub18PH2ZODwcSyeMxm1Ws24qXPzJRFBgf4YDAZmzl9OQmIybw3rD0D3znmvvE5JTUOr1REU4M/mz3fySttWVK38BJevXP/nw6Ryd0IIYV+SRAgh7pmLsxMuzk74+XhgMOSiNxq5kZBieQYiLb3gKUaFld+tpJRcy+85Y0pzNdbAyi1prIwKwMVZQY8RMaRl3vyoZUJybkHdWNSoUY0A/7zpKvXr1eXTbZ/bFM+FCxcpX6E87u55r8UNDW3IXxcvFtkmMCCAjZs+Ydfub1GpVOj1BsuHG2tUr2bpq3atmmzZus3SrkH9egDUqlWTP/88V+Q6on8/SkTfvK+pV61SmQ+XL+Ho0eMEBQbi5+driXX02ImWNnXqPAOAj48PqanWz5MUFfetCurn8JFo4uMTOPBTXrKZnpbO5StXqRgcTMWKT9g1gShMraeqU7XSEwT4+3EjLoEFy9cyc3Led3J8vD0B8HB3Q+PkBIDJZP0xVbVazZgRQ/j78jVWrtvCpNH/A+D0mfN8+8MBhg3qjaOjmr7dO/HFrj1s/uxrnn6yGhXKl3lAWymEEIWTJEIIUWJUSiUqJyUaJzUJKekYjLmoHVR4ergVmDB4eriV6PqDy6o5cyHvC+qrtqSybk4gvTt68vc1A71HxZKRZbKqXxSl4ubVXqVSiUKhsPr4pNFYdCKC+eYL8Ao6kbzdjFkKvM9xAAAgAElEQVRzCA4O/v/27jugqvr/4/jz3iuCTMEBqOU2m37dK7dp7j1TMrO0NFeuzHKFpqi498i90sxSy7RvZpq/cuVIwjRxskEFBC733t8fFIogeF1o39fjLzj38/583udgt/M+n/M5h0kT38Fms/FS+Zv32VusN8eyWCzpcvmnb4vVkvoM7WxYLFnnYrNaMRpv9mMyZf2/i6zyvlVm/RgNRgYN6EfjRulf9njkyG84/n0S/rgJDYvEwSF1X5yd89zV3/ZWO3btwd3NlZpVK5LPMy/xCTcAOHDwKCdPnab/Oz3S1kKER0bz1uudsNls+E+ZS/XK/8HHu8CD3SERETtpPlREHoo8jrm5Hp96YtSgTo1M29xp+716rtTNE86gs8l0HHCZvQcT6DE8YwEB8ELprE9Qg/74g+iYGCD16v2zZcuSO3duHHLl4vr11KvsBw8eumN8iRLFORcSwtWrqWs1ftiT9ZOMACIiIilRvBgA27Z/g9lsxmxOve0qKOgPoqOjU8c9dJhny5ZNi/tpX+qi7kOHDvPcs2XJSsUK5dn9/Q8AXL58hbbtu1CmTCkuX7lCeHgEAHt/2k+F8v/Jsh+j0UBiYlK2eWencqUKfL1tBwA2m41xn0wkLCz8rmIfhX3/d4ips5cQHXOVwDlL2fn9T+TN687az79iyqzFzF64gh5d29nVZ82qFfnpwCGmzFrM9Pmf0bVDS2w2G4s+W0d0TCzT5y5j6uwlnPrjT87+dZ7JMxYyf+ka8nnlpUCBx29mRkT+92gmQkQeCg9XZyJiruPl4Zq27uFhP52pWyt3tuyKw2JJvfp/7qKZwRMyPxkt4GWiaV2XO/ZlsVh56cUX8Z8wmfCICCwpFmbPnApA33d78/obb/Pss2Vxc3XBas30dTt4eXrSv9+7dOj0GkWKFKZUqZLYrJey3Ideb/bAf8Jk1q3fSL26dWjVshmDhgxn0IB+PFu2LOP9JxEaGgbAnFnTAMhlMnH06G8sW76S6KhoJnwyJtsxRnzwEa3adCQlJYWhQwbi4uLC5E/9ebffQPI45wHAf/zoLPspV+4lAqZO56PR47LMOzs933idj0aPo33H17BYLVSrUhlv74Jcvnwl29hHoWbVitSsmvEJU6OGZlwfEzB+RNrPU/1HZrodUm91Gj7g7QzxS2Z/mmHbs8+UsitfEZFHQS+bE3lCPQkvhQqLisWAgaKF8j+yMeetiSVwWXS27VZNLUSVl5weQUYPxq1PObpdZk+FErkXT8L3iog8HjQTISIPjXe+vIRFXeWPc5cp4On+SN5Y3adLXhxzG5iyJJqUlIzXSDxcjQSMKJijBcS8+Yv4NZPboHx9fbO9+v84jSEiIv+7NBMh8oR6kq4Yxt9I5GrcDeL+XiNR7pmH/91yIjiJrbvjCI9KIfa6lfyeJnwL5MKvjQcFvHLmpWUij7sn6XtFRHKWZiJE5KFzyeOESx4nghNuPLKLEy+UceSFMo/nk31ERESedHo6k4iIiIiI2EVFhIiIiIiI2EVFhIiIiIiI2EVFhIiIiIiI2EVFhIiIiIiI2EVFhIiIiIiI2EVFhIiIiIiI2EVFhIiIiIiI2EVFhIiIiIiI2CXH31h98Hgim769zvHgJC6GplCmmAPlyjrRo50Hhb1zPD0REREREblNjp2lxyVYGTszki93x6XbfvRUEkdPJbHmq2v06ZKX9/w8cyhDERERERHJTI7dzpRZAXErc4qNWStjWLnl6iPMSkREREREspMjRcSu/fFZFhC3mrwomvOXzVm2CQr6g9N/nrmnXLKKjY6JoU37zoSFhd8xvlNXP349eOiexr7dd7u+58aNRLtiSpZ5Ids2X329/V5TuqvYTZu30LhJS5o0b0Prdp0I+iM403YnTv5OvQav4j9xcto2i8XCBx9+TP1XmlL/laZs/HwzABM/ncKKlWvuOW8REREReXhypIhYvfXaHT8zmQwEjixIt1buACQl2/hyV9YFx7bt33L69J/3lEtWsaPHfMLbvXri7V3wnvq218JFS7mReOOB9pmcnMy8BYseWmxcXBzLPlvJ2jXL2fH1F7Rv25qp02ZmaHfx4iUmTAygYcP66bZv/Wob0dExfP/ddjZvXMv0mXOIjo5m2NBBrFm7nnMh5+8p91sd/z0Y/ylzCZyzlPGTZxMaFmFXfMj5S0yYOpfAucvwnzKX6JirxCckEDBzEYFzl/Fp4AJCwyPvO08RERGRJ0WOrIkIuZT5zEJuBwOL/H3I72li3JyotO3n7tD+Hxs/30yBAvlxcnKierWqfDxmPOHhESQmJVK9WlUG9u/L0aPH8J84mVy5chEXF8f7g/vj6uqaLrZ+vTppfV64cJETJ04yc/oUAFq368ToUSMpX74cSUlJlK9Und+PHwZgx46dLFy0lHPnQujerSt+3bsyafJU3N3deafPW2nx48Z8RHJyMtNnzKZMmdJERUVz/sIFFs6bzc7vdnHs+AkGDBrKpAnjefe9gXccLzORkVEMGjKc5ORkbiTcoG3bVvTw68bIUWMICbnAgEFDmREYwN69+5g7fxGOjo6kpJgZO3oUJUuWYP2GTWzYuAmTyQgGA1MnT2TGrLnpYjPj6urK11s3AWC1WrkSGsZTRQpnaJc/fz5WLF/MihWruRIamrZ91+7/0rZNKwDy5vWgdq2afP/fPbRv14bX/bqxaPEy/MePzvLvnx2Tycigvj1xzuPE51/u4GTQac6dv8j+X47wVGFf/jh9lhpVKxAVHcup4DMM7NMDd3fXtPgz587j16UtRQr5sOO7PRz49QgpFgsvvVCWxvVrEXL+Ehu3bKdX947MW7qGPE6OxMRepUObppQuUey+chcRERF5HOVIEREVY0n7OWBEQS5cMbN4w1UW+/vgnMdA10GXuRpnTWsTEW3JrJs01apVodErDahfrw6z58yn6NNPETDJH5vNRqeufrxcszqrVq/jjR7dadqkMeHhEez/+QB169ROF3urvT/to3r1ahgMhmz3x2q1smjBHCIjo6j/ShPatG5xx7Ymo4nfjp1g7uwZuLu78dHocWzb8Q09/Loxa/Z8ZgQG4OVp/2Lyy1eu0KFdG1q2aEZSUhKVq9WiS6cO9Ovbh2PHjjMjMID4+Hg+HjOerVs24ubmxr79Bxg99hNWrVhK4PRZbN/2BV6enhw+cpTwiIh0sdlZvWYdkwKmUaZ0aZYvW5jhcycnp0zjwsLCKVigQNrvBQsUIDQ0DIA6tV9mzrwFdh+L2z33TCnOnrvAirWbMZlMDB/YmyPHfsfV1ZkOrZuwfecPhIZH0rV9Cz7/cgengs9QtVK5tPj6tasDqbdenTgVTJf2LTgZdJq4uAQAklPMnL9wmcuh4VitVnr5dSQp2UxCwoOdVRIRERF5XORIEVGsiAOnziQDsGRDLCsCfOneyoO/LprpPuQK1+OtGdrfrV8OHiI8PIK9+/YDcO3qNULOX6B5syaMGefPwYOHqV27Ji1bNMuyn0uXr1C4kO9djVmvXm0g9Wq7r49PtrfglCxZHHd3NwDyeXkRG3v/i8d9fXxYvWYdO77ZiclkIjnZzLVr19O1CQ7+k4jIKHr17guAzWolPj71RLht21Z07fYGTV5tRIP6dXnh+efsupXota6d6dK5I3PnLWTg4GEsWjDnnvbDZrOlFW4+Pt6Eh0ek23avShR7ijEfDGD7zh/YumMXTxUuhFfevADkzu2Ap0fq7XMODg6YzRlnviIio1m1fgstmzakSCEfvAvkY9WGL1mwbC2FfL1xdMxNyeJPU/6l55g2dxkmo5HO7ZrfV84iIiIij6scKSKeK+WYVkQEnU2m44DL9PfzZFRgJAk3rBnav1Da8a77NhqMDBrQj8aNGmb4rGqVSvx84BdWr1nP5i+2pt2qlBmbzZbu91tPYlMs6WdGjIabS0sMRmNq29tOei0pN2NymW477LeNldV4NWs3AKBypYpMn3ZzgfLESQEUK1aMSRPfwWaz8VL5qhn6NBoNFClSmPVrVmT4bNiQQXTv1oW9e/cxZNhI/Lp3pUb1ahna3S4yMopTp4KoVasmRqORLp07MH/hkmzj/uHj401Y+M2F66Fh4VSrWuWu4+/GzAXL6dy2OQUL5MPLKy/hwdF2xV++EsbqjVt5u0dnPP4u/q5dj6dOzaqUKPYUh387SemSxYiMiub5sqVpUKcGJ4NOs+Xr7+j3dvcHui8iIiIij4McWVjdrZU7JtPNk+RzF80MnhCeaQFRwMtE07ouWfZnNBpITEwCoHKlCny9bQeQWgiM+2QiYWHhzJm7ALPZTKNXGjBu7EccPnI0Q+ytChfy5dLlK2m/5/XwIDIqdZ3GwduexrT/5wNA6tOcQkNDKV6sKHnz3mwfHRPD2bN/ZX1QAIPRQNLfudxpvH0/7mbfj7vTFRAAERGRlCheDIBt27/BbDZjNpvT7V+p0qUID49IexrVL78eYtnylSQk3CBw+iy8CxakY4d29H6rJ4cPH81wbIKC/iAlJSXduCmWFAYMHpa2zuGnfT/zTJnSQGqBcev6h8w0btSQTZu/xGazER0dzb79P9Ogfl0AQkPD8PYueN+zEE0a1mHhZ+uYOnsJ3+/ZT7NGde2KX7XhS+LiE1i8YgNTZy9h5/c/4ZjbgfWbtxE4Zyl79v1C2xaNAfhszSZmL1zJN7t+pFaNyveVt4iIiMjjKkdmIp4v7Uh/P08Cl2V/RTjwQ29cnbOudWpUr0bAlEDMZjM933idj0aPo33H17BYLVSrUhlv74KULFmCHj174+zsjNls5sMPhmWI7dSxXVqfL79cg4WLlqXdStOzhx+TAqax+/v/UqJ4cQx/zz5YLVYsVit93xvE2b/OMXzo+7i4uNCyeTP69B3AwMHD8PL05Nlny2KzZiySblW7Vk269+jFtCmf3nG8O+n1Zg/8J0xm3fqN1Ktbh1YtmzFoyHBWLV+Ck5Mjbdp3ZuO6VcyYNpmhw0finCf1OIwf+xHOznmw2Wy0adcZZ2dnbDYb48d9jK+PT7rYlm068uMPO/Hx9k4b18fbm7GjP+SNnr0xGI24urjw6cTxAKxdv4ErV8KY8MkYvvn2O6YFziQmNpYUcwp79uylX98+NGv6Kj8f+IX6rzTFaDQyYtj7ePx9a9GeH3+iTu1aWe733ShdshijhvZNt61Afq+0dQ8N69ZM296qacYZrGED3s603w8G90n3u5urCyMG9cm0rYiIiMi/iSEhMTnjvTRAcMhlypUp+tAGttlg2aarTFkSTUpKxhQ8XI0EjChI3arODy2H7PTrP5imTRrTtEnjHMvhcTJmrD8jPxhK7ty5H/pYFouFZi3aMn/eLIoVffqhj/ck+i04hDJFC+V0GnZ52N8rInJ/nsTvFRHJGTkyEwGpSwZ6tvegyktObN0dR3hUCrHXreT3NOFbIBd+bTwo4GXKqfQAGDdmFD3feoeKFco/sndFPM6qVq38SAoIgEkB0+jSuaMKCLlnB48nsunb6xwPTuJiaAplijlQrqwTPdp5UNg7x776RERE/hVybCZCRO7Pk3jF8FF8r8QlWBk7M5Ivd2f+kkqHXAb6dMnLe372P0pZ5N/uSfxeEZGckSMLq0VEHpasCggAc4qNWStjWLnl/h+tLCIi8r9KRYSI/Gvs2h+fZQFxq8mLojl/OeM7Qf5x4P9+4bXub9g1fvmKqS8mnD5jNrPmzMvw+U/7fsbvjbey7CM29iqvNG5O73fes2vsO/nq6+0PpJ8Ui4Uyz5bLvuEDcjd59+zVhyNHfnsE2YiIyO10Y7CI/Gus3nrtjp+ZTAamDC/AoZOJrPryGknJNr7cFfdAb2s6cujn++7jVFAQnp55WTBvVrrtFosFk8m+dWLJycnMW7CIFs2b3ndej9Ld5r108fz7HutejitAVHQsi1duIJfJRELCDZq8UodK5V+86/ig4LPMW7qawr6pT7urUrEcdV+uypWwCFas3YzBYCBPHif69uqG0ajrfSLy+FERISL/GiGXMp9ZyO1gYJG/D/k9TYybE5W2/dwd2v8jMTGJwUOGc/HSZQDmzpqOm5srL/6nCsGnUq+A7/lxL8tXrGbp4vmULPMCZ4JPpOtjxco1rNuwkZIlSuDpmTfL8a5du86kgGmcP3+RYSNG0b5ta2bNmUfu3LmpWaM6devU4uMx4zEYjSTEJ9Cndy9eaVif2XPmc/nyFUy5TFy8eAkXFxdmzZjKyFFjCAm5wIBBQ5kRGMDevfuYO38Rjo6OpKSYGTt6FCVLlqCbX08qVihPTGwsx46foHnTJvR6swcHDx1m9JhPKFy4EM8//1x2hx+AGbPm8sOeH0lOSqZ5sya80+ct4uPjGTlqDFFRUSQnJ1OzZg0GvPfuXee9Zu161m/cTB4nJwwGA9OnTcbbuyCduvoxZPCA1G0zZlOmTGmioqI5f+ECC+fNpkCB/Hfc53IVqtKhfVtiYmKZGjDxrvbtVklJSXTv1JpCPgU5GXSa73/8mUrlX2TkuKlUq/wfwsIjccydGw93Ny5eCaVIIZ90j5COT0igVvVKtG/VJP2/l7Wb6d65DYV8CnIq+AzJZjO/HDrGoSPHMZpM5MnjyNuvd7Y7XxGRB01FhIj8a0TF3Hy7e8CIgly4Ymbxhqss9vfBOY+BroMuczXu5vtaIqItmXWT5sTJ35kzOxAfb2/GfTKRJcuWM7B/3yxjbhUTG0vg9Fn8+MNO3NzcGDc+65NVd3c3hgweyMLFS5n86SccOfIbhw8f5ccfdpIvXz46d32dN3v68UrDBoSFhdO0RVtq1qiOyWTizF9/sW71cgwGA680bs4fwafp17cPx44dZ0ZgAPHx8Xw8Zjxbt2zEzc2NffsPMHrsJ6xasRTj31fix435iOjoaOq/0pReb/Zg7LgJjPxgGDVrVGPnd7uz3d9ffj3Enj17+Xz9aiwWCz179aFd29asWbeBfPm8mBEYQIrFQsvW7alZo9pd5Q1w7XocSxbOJX/+fMyeM5+Vq9cyZPCAtHFNRhO/HTvB3NkzcHd346PR49i24xs6tGtzx31OSkqmZo3q1Ktb+67/nrcq5OuN2Wzm08D5RERG836/NwEwm828XK0SXp4evNV/JLMCRuPg4MDIsVMyFBG/B/3JrLAVpKRYaNuiEUWfKkxkVAwHjxzn4qVQ8ufzpGzpEvz86xHaNHuFMqWKE3L+ElarVbMTIpLjVESIyL9GsSIOnDqTDMCSDbGsCPCleysP/rpopvuQK1yPt2Zon5Vnn30m7eWKlStV5PNNX9iVz5kzZ3m66NO4ubkBUL16Vf48e9auPkqUKE6+fPkAOHL0N2rWqAGAt3dB8ufz4ty5EAAq/Kdc2tvdvfJ5cTX2Kk4+Tmn9BAf/SURkFL16pxZBNquV+PiEtM8rVPhPaqyXF7GxV7HZbAT9EUzFv7fXqF4121wPHTpMlcoVMZlMmEwmVq1YCsDhI0fp4dcNgFwmE5UrVeTYsRN3lTeAr483H3z4MY6Ojly4cDHTWZGSJYvj7p56nPP9vQ9Z7bPVaqVKlUrZ7lNWHBwcGDGoD3+FXGTxig18PDx1HYuXpwcA7m6uODk6po13q5eeL0uZksXx8S5AaFgE0+d/xqejhxIde5V6tarh5urCgmVrOXr8FD26tGXrjt2s37yNF557hqJPF76vvEVEHgQVESLyr/FcKce0IiLobDIdB1ymv58nowIjSbiR8Y3xL5R2zLI/4y1vijcajRgMhrQT3n+kpGQ9m4Ht5lO0bz+RvBuOf5+E2mw2DAYDNtL3ZzSm5mPKlf7r/NZ2qfkbKFKkMOvXrMh0HJMp4/8ObDZbWvoWy93lbrmLfbRarRjuMu9zIef5ZMIkvt2xFS9PTxYv+Yyzf53L0Geu2/O32bLd53+O7b3YsWsP7m6u1KxakXyeeYlPuGFXfGhYJA4OqTk7O+dJ+7fxdBFfbNbUY+DinIeUlBTCI6N56/VO2Gw2/KfMpXrl/+DjXeCecxcReRA0Hyoi/xrdWrljMt08yT930czgCeGZFhAFvEw0reuSZX9Bf/xBdEwMAIcOH+HZsmXJnTs3Drlycf36dQAOHjx0x/gSJYpzLiSEq1dTF3z/sOdHu/fpHwaDgQrl/8NPP+0H4NKly1y9do1ixe783g2j0UBiYhIApUqXIjw8gtN/ngFSbz1atnxlluOVKVOKg4cO33XuFSuUZ+9P+zGbzaSkpNC12xuEnD9PpYoV2Lt3H5B6u88vvxykwn/u/KSnW/OOiorC3d0dL09PbtxI5NuduzCbs17L8g9799keNatW5KcDh5gyazHT539G1w4t7YrPm9edtZ9/xZRZi5m9cAU9urYDwK9zW+YtW8P0ecu4eu06Ff7zAmf/Os/kGQuZv3QN+bzyUqBAvgeyDyIi90MzESLyr/F8aUf6+3kSuCw627aBH3rj6nzn6ygWi5WXXnwR/wmTCY+IwJJiYfbMqQD0fbc3r7/xNs8+WxY3Vxes1kzf2YmXpyf9+71Lh06vUaRIYUqVKonNeunedg7wHz+aj0aPY9WaddxIuMHUyRNxcnK6Y3tfHx+cnBxp074zG9etYsa0yQwdPhLnPM6YzWbGj/0oy/E+HvUBo8d8QkHvglSqWAGTKevrTlWqVKLJq41o3bYTVpuNls2bUvTpp3mz5+uM/HA03fx6kpiYRLu2rSlX7iX2//x/2ea9bvUKShQvRodO3XB3d+O9vn0YNmIUu3b/N9vj5eLsbPc+3y13N1eGD3g7w/aA8SPSfp7qPzLT7QA+BfMzamjG9TXFixbJ0G+rZg0ztBMRyWl6Y7XIE+pJfLPso/hesdlg2aarTFkSTUpKxq83D1cjASMKUreq80PNQ+RJ9CR+r4hIztBMhIj8qxgM0LO9B1VecmLr7jjCo1KIvW4lv6cJ3wK58GvjQQEv+98L8CDNm7+IXzO5DcrX1xf/8aNzIKO79/1/97Bq9dpMP5s+LSBtcbOIiPy7aSZC5An1JF4x1PeKyOPtSfxeEZGcoYXVIiIiIiJiFxURIiIiIiJiFxURIiIiIiJiFxURIiIiIiJiFxURIiIiIiJiFxURIiIiIiJiFxURIiIiIiJiFxURIiIiIiJiFxURIiIiIiJil1w5ncDB44ls+vY6x4OTuBiaQpliDpQr60SPdh4U9s7x9ERERERE5DY5dpYel2Bl7MxIvtwdl2770VNJHD2VxJqvrtGnS17e8/PMoQxFRERERCQzOXY7U2YFxK3MKTZmrYxh5ZarjzArERERERHJTo4UEbv2x2dZQNxq8qJozl82Z9kmKOgPTv955p5yySo2OiaGNu07ExYWfsf4Tl39+PXgoXsa+3bf7fqeGzcS7YopWeaFbNt89fX2e03prmI3bd5C4yYtadK8Da3bdSLoj+BM2504+Tv1GryK/8TJaduioqLo0bM3LVq1T9u2+/sf6Nd/8D3nLCIiIiIPV44UEau3XrvjZyaTgcCRBenWyh2ApGQbX+7KuuDYtv1bTp/+855yySp29JhPeLtXT7y9C95T3/ZauGgpNxJvPNA+k5OTmbdg0UOLjYuLY9lnK1m7Zjk7vv6C9m1bM3XazAztLl68xISJATRsWD/d9n7936d+vTrptjWoXxc3N1c2bd5yT3nf7vjvwfhPmUvgnKWMnzyb0LAIu+JDzl9iwtS5BM5dhv+UuUTHpM6Off7lDgJmLmLMpzM5cSrzwklERETk3yhH1kSEXMp8ZiG3g4FF/j7k9zQxbk5U2vZzd2j/j42fb6ZAgfw4OTlRvVpVPh4znvDwCBKTEqlerSoD+/fl6NFj+E+cTK5cuYiLi+P9wf1xdXVNF3vryeyFCxc5ceIkM6dPAaB1u06MHjWS8uXLkZSURPlK1fn9+GEAduzYycJFSzl3LoTu3bri170rkyZPxd3dnXf6vJUWP27MRyQnJzN9xmzKlClNVFQ05y9cYOG82ez8bhfHjp9gwKChTJownnffG3jH8TITGRnFoCHDSU5O5kbCDdq2bUUPv26MHDWGkJALDBg0lBmBAezdu4+58xfh6OhISoqZsaNHUbJkCdZv2MSGjZswmYxgMDB18kRmzJqbLjYzrq6ufL11EwBWq5UroWE8VaRwhnb58+djxfLFrFixmiuhoWnbFy+cQ0jIBTZ+vjld+7ffepNeb79Lu7ats/zb3w2Tycigvj1xzuPE51/u4GTQac6dv8j+X47wVGFf/jh9lhpVKxAVHcup4DMM7NMDd3fXtPgz587j16UtRQr5sOO7PRz49QhlShXnSlgEQ/u/xfW4eMIjorhxI5F5S9eQx8mRmNirdGjTlNIlit13/iIiIiKPmxwpIqJiLGk/B4woyIUrZhZvuMpifx+c8xjoOugyV+OsaW0ioi2ZdZOmWrUqNHqlAfXr1WH2nPkUffopAib5Y7PZ6NTVj5drVmfV6nW80aM7TZs0Jjw8gv0/H6BundrpYm+196d9VK9eDYPBkO3+WK1WFi2YQ2RkFPVfaUKb1i3u2NZkNPHbsRPMnT0Dd3c3Pho9jm07vqGHXzdmzZ7PjMAAvDztX0x++coVOrRrQ8sWzUhKSqJytVp06dSBfn37cOzYcWYEBhAfH8/HY8azdctG3Nzc2Lf/AKPHfsKqFUsJnD6L7du+wMvTk8NHjhIeEZEuNjur16xjUsA0ypQuzfJlCzN87uTklGmci4tLptuLFytKcnIyly5dpnDhQvYdjNs890wpzp67wIq1mzGZTAwf2Jsjx37H1dWZDq2bsH3nD4SGR9K1fQs+/3IHp4LPULVSubT4+rWrA2CxWDhxKpgu7Vtw7EQQLs7OfLZmM1evXadV0wZcDg3HarXSy68jSclmEhIe7KySiIiIyOMiR4qIYkUcOHUmGYAlG2JZEeBL91Ye/HXRTPchV7geb83Q/m79cvAQ4eER7N23H4BrV68Rcv4CzZs1Ycw4fw4ePEzt2jVp2aJZlv1cunyFwt9O5VMAABQmSURBVIV872rMevVqA6lX2319fDgXcj7L9iVLFsfd3Q2AfF5exMbe/+JxXx8fVq9Zx45vdmIymUhONnPt2vV0bYKD/yQiMopevfsCYLNaiY9PAKBt21Z07fYGTV5tRIP6dXnh+eey3Y9bvda1M106d2TuvIUMHDyMRQvm3Pc+FS5UKPXvcJ9FBECJYk8x5oMBbN/5A1t37OKpwoXwypsXgNy5HfD0SL19zsHBAbM548xXRGQ0q9ZvoWXThhQp5MOhoydwzJ2b1zq2JDIqmunzPuOTUYMp/9JzTJu7DJPRSOd2ze87bxEREZHHUY4UEc+VckwrIoLOJtNxwGX6+3kyKjCShBvWDO1fKO14130bDUYGDehH40YNM3xWtUolfj7wC6vXrGfzF1vTblXKjM1mS/f7rTMSKZb0MyNGw82lJQajMbXtbTMYlpSbMblMtx3228bKaryatRsAULlSRaZPu7lAeeKkAIoVK8akie9gs9l4qXzVDH0ajQaKFCnM+jUrMnw2bMggunfrwt69+xgybCR+3btSo3q1DO1uFxkZxalTQdSqVROj0UiXzh2Yv3BJtnF3w4bt9sN4T2YuWE7nts0pWCAfXl55CQ+Otiv+8pUwVm/cyts9OuPxd/FXvGgRjhz7HYA8eZywWq1ERkXzfNnSNKhTg5NBp9ny9Xf0e7v7/e+AiIiIyGMmR4qIbq3c2bIrDosl9eT53EUzgydk/gSkAl4mmtbN/JaXfxiNBhITkwCoXKkCX2/bQeNGDbHZbIz3/5Teb73J55u+oEvnDjR6pQEvvvg8HTp1yxB7q8KFfDn5e1Da73k9PIiMSl2ncfC2pzHt//kAtWrVJDomhtDQUIoXK0revB6Eh6cu4I2OieHs2b+yPS4Go4Gkv3O503j7ftydaWxERCT169UFYNv2bzCbzZjN5nT7V6p0KcLDIzj95xlKlyrJL78e4uTvv9OpQ3sWLFzMgP596dihHQ4ODuzbf4CXa1ZPd2yCgv6gVKmS5Mp1859NiiWFAYOHse2rTfj6+PDTvp95pkxpILXAMKeY8fXxyXbfM3P58hUKF7r/WYgmDeuw8LN15MnjRFJSEm+93pmz5y7cdfyqDV8Sn3CDxSs2APDic8/QqP7LHD12ihnzPiMuPoEu7VNvYftszSZcXVxISk6mYd2a9527iIiIyOMoR4qI50s70t/Pk8Bl2V8RDvzQG1fnrB8iVaN6NQKmBGI2m+n5xut8NHoc7Tu+hsVqoVqVynh7F6RkyRL06NkbZ2dnzGYzH34wLENsp47t0vp8+eUaLFy0DJvNhsFgoGcPPyYFTGP39/+lRPHiGP6efbBarFisVvq+N4izf51j+ND3cXFxoWXzZvTpO4CBg4fh5enJs8+WxWbNOMtyq9q1atK9Ry+mTfn0juPdSa83e+A/YTLr1m+kXt06tGrZjEFDhrNq+RKcnBxp074zG9etYsa0yQwdPhLnPKnHYfzYj3B2zoPNZqNNu844OzunFl/jPsbXxyddbMs2Hfnxh534eHunjevj7c3Y0R/yRs/eGIxGXF1c+HTieADWrt/AlSthTPhkDN98+x3TAmcSExtLijmFPXv28tprnVm9eh1JScmEhoXR6NUW1KpVk48+HMFf50JwdHSk0F3eUpaV0iWLMWpo33TbCuT3Slv3cOvJfqumGWewhg14O9N+/bq0ybBtxKA+95Pq/wADNluGiToReQykTorrP04RuTuGhMTkjPfSAMEhlylXpuhDG9hmg2WbrjJlSTQpKRlT8HA1EjCiIHWrOj+0HLLTr/9gmjZpTNMmjXMsh8fJmLH+jPxgKLlz537oY40Y+RGVK1V8IE9n+rf6LTiEMkXvf6bmUTp/JZLC3p645sl8ob2I5Jy4G4lcCovhad/8OZ2KiDwBcmQmAlKvRPZs70GVl5zYujuO8KgUYq9bye9pwrdALvzaeFDAy5RT6QEwbswoer71DhUrlH9k74p4nFWtWvmRFBC7v/+BuLh42rZp9dDHkkfL3TUPYVHXcC2iIkLkcRMWdQ131zw5nYaIPCFybCZCRO7PkzgTARAaFYvVasM7nzsuTk66tUkkB9lsEJ+YSFjUNYxGAz758uZ0SiLyhMixmQgR+d/kky8vsdfjuRQWQ2KyGcj0OoaIPBIGnHI74O6ah7xuWT/ERETkVioiROSRy+vmohMWERGRJ1jWj/wRERERERG5jYoIERERERGxi4oIERERERGxi4oIERERERGxi4oIERERERGxi4oIERERERGxi4oIERERERGxi4oIERERERGxi4oIERERERGxi4oIERERERGxi4oIERERERGxi4oIERERERGxi4oIERERERGxi4oIERERERGxi4oIERERERGxi4oIERERERGxi4oIERERERGxi4oIERERERGxi4oIERERERGxS66cTuDg8UQ2fXud48FJXAxNoUwxB8qVdaJHOw8Ke+d4eiIiIiIicpscO0uPS7AydmYkX+6OS7f96Kkkjp5KYs1X1+jTJS/v+XnmUIYiIiIiIpKZHLudKbMC4lbmFBuzVsawcsvVR5iViIiIiIhkJ0eKiF3747MsIG41eVE05y+bs2wTFPQHp/88c0+5ZBUbHRNDm/adCQsLv2N8p65+/Hrw0D2Nfbvvdn3PjRuJdsWULPNCtm2++nr7vaZ0V7GbNm+hcZOWNGnehtbtOhH0R3Cm7U6c/J16DV7Ff+LktG3Jycm8P/QDGr3aggaNmjF33kIAJn46hRUr19xz3iIiIiLy8ORIEbF667U7fmYyGQgcWZBurdwBSEq28eWurAuObdu/5fTpP+8pl6xiR4/5hLd79cTbu+A99W2vhYuWciPxxgPtMzk5mXkLFj202Li4OJZ9tpK1a5az4+svaN+2NVOnzczQ7uLFS0yYGEDDhvXTbV/62UqsVivf7tjK1i0bWbl6Laf/PMOwoYNYs3Y950LO31Pumdmz7xf6Dx9nd9zx34PxnzKXwDlLGT95NqFhEURFxzJpxkKmzl7C+MmzOXjk+APLU0RERORxlyNrIkIuZT6zkNvBwCJ/H/J7mhg3Jypt+7k7tP/Hxs83U6BAfpycnKherSofjxlPeHgEiUmJVK9WlYH9+3L06DH8J04mV65cxMXF8f7g/ri6uqaLrV+vTlqfFy5c5MSJk8ycPgWA1u06MXrUSMqXL0dSUhLlK1Xn9+OHAdixYycLFy3l3LkQunfril/3rkyaPBV3d3fe6fNWWvy4MR+RnJzM9BmzKVOmNFFR0Zy/cIGF82az87tdHDt+ggGDhjJpwnjefW/gHcfLTGRkFIOGDCc5OZkbCTdo27YVPfy6MXLUGEJCLjBg0FBmBAawd+8+5s5fhKOjIykpZsaOHkXJkiVYv2ETGzZuwmQygsHA1MkTmTFrbrrYzLi6uvL11k0AWK1WroSG8VSRwhna5c+fjxXLF7NixWquhIambX+tS0eMRiMGgwEXZ2e8PD1JiI/HZDLxul83Fi1ehv/40Vn+/e9GaHgkx04G4eriAsCBX4+w/5cjPFXYlz9On6VG1QpERcdyKvgMA/v0wN3dNS3WZDIyqG9PnPM48fmXOzgZdJpny5Ske6fWFPIpyMmg03z/4888X7Y085auIY+TIzGxV+nQpimlSxS779xFREREHjc5UkRExVjSfg4YUZALV8ws3nCVxf4+OOcx0HXQZa7GWdPaRERbMusmTbVqVWj0SgPq16vD7DnzKfr0UwRM8sdms9Gpqx8v16zOqtXreKNHd5o2aUx4eAT7fz5A3Tq108Xeau9P+6hevRoGgyHb/bFarSxaMIfIyCjqv9KENq1b3LGtyWjit2MnmDt7Bu7ubnw0ehzbdnxDD79uzJo9nxmBAXh52r+Y/PKVK3Ro14aWLZqRlJRE5Wq16NKpA/369uHYsePMCAwgPj6ej8eMZ+uWjbi5ubFv/wFGj/2EVSuWEjh9Ftu3fYGXpyeHjxwlPCIiXWx2Vq9Zx6SAaZQpXZrlyxZm+NzJySnTODc3t7Sfv9v1PQ65HXjhhecBqFP7ZebMW2D3sbidxWJh5bov6N2jC59OT+3PYDDi6upMh9ZN2L7zB0LDI+navgWff7mDU8FnqFqpXFr8c8+U4uy5C6xYuxmTycTwgb3JndsBs9nMp4HziYiM5v1+b3I5NByr1Uovv44kJZtJSHiws0oiIiIij4scKSKKFXHg1JlkAJZsiGVFgC/dW3nw10Uz3Ydc4Xq8NUP7u/XLwUOEh0ewd99+AK5dvUbI+Qs0b9aEMeP8OXjwMLVr16Rli2ZZ9nPp8hUKF/K9qzHr1asNpF5t9/XxyfYWnJIli+PunnrynM/Li9jY+1887uvjw+o169jxzU5MJhPJyWauXbuerk1w8J9EREbRq3dfAGxWK/HxCQC0bduKrt3eoMmrjWhQvy4vPP+cXbcSvda1M106d2TuvIUMHDyMRQvm2JX/V19vZ+78RSxbMh+TyQSAj4834eER2Gy2uyrm7mTjlh00qv9yutkFAK+8eQHIndsBT4/U2+ccHFKLg9uVKPYUYz4YwPadP7B1xy7at2qCg4MDIwb14a+QiyxesYGPh79H+ZeeY9rcZZiMRjq3a37POYuIiIg8znKkiHiulGNaERF0NpmOAy7T38+TUYGRJNywZmj/QmnHu+7baDAyaEA/GjdqmOGzqlUq8fOBX1i9Zj2bv9iadqtSZmw2W7rfbz2JTbGknxkxGm4uLTH8fWsOt530WlJuxuQy3XbYbxsrq/Fq1m4AQOVKFZk+7eYC5YmTAihWrBiTJr6DzWbjpfJVM/RpNBooUqQw69esyPDZsCGD6N6tC3v37mPIsJH4de9KjerVMrS7XWRkFKdOBVGrVk2MRiNdOndg/sIl2cbdas3a9Wz58ivWrV6Ox98n8w+KxWLhVPAZYmKvsf//jhARFc2mrd9Q5C4LRICZC5bTuW1zChbIh5dXXsKDo9mxaw/ubq7UrFqRfJ55iU+4QWRUNM+XLU2DOjU4GXSaLV9/R7+3uz/Q/RERERF5HORIEdGtlTtbdsVhsaSePJ+7aGbwhMyfgFTAy0TTui5Z9mc0GkhMTAKgcqUKfL1tB40bNcRmszHe/1N6v/Umn2/6gi6dO9DolQa8+OLzdOjULUPsrQoX8uXk70Fpv+f18CAyKnWdxsHbnsa0/+cD1KpVk+iYGEJDQylerCh583oQHh4BpD7l6ezZv7I9LgajgaS/c7nTePt+3J1pbEREJPXr1QVg2/ZvMJvNmM3mdPtXqnQpwsMjOP3nGUqXKskvvx7i5O+/06lDexYsXMyA/n3p2KEdDg4O7Nt/gJdrVk93bIKC/qBUqZLkynXzn02KJYUBg4ex7atN+Pr48NO+n3mmTGkgtcAwp5jx9fG54z4fOfIba9ZuYOP61eTJk/6Wp9DQMLy9C97XLITJZGLsBwPSfh85birtWr7K/x387a77aNKwDgs/W0eePE4kJSXx1uudcXTMzbyla/j5lyMk3Eika4eWAHy2ZhOuLi4kJSfTsG7Ne85bRERE5HGWI0XE86Ud6e/nSeCy6GzbBn7ojatz1g+RqlG9GgFTAjGbzfR843U+Gj2O9h1fw2K1UK1KZby9C1KyZAl69OyNs7MzZrOZDz8YliG2U8d2aX2+/HINFi5alnYrTc8efkwKmMbu7/9LieLFMfw9+2C1WLFYrfR9bxBn/zrH8KHv4+LiQsvmzejTdwADBw/Dy9OTZ58ti82acZblVrVr1aR7j15Mm/LpHce7k15v9sB/wmTWrd9Ivbp1aNWyGYOGDGfV8iU4OTnSpn1nNq5bxYxpkxk6fCTOeVKPw/ixH+HsnAebzUabdp1xdnZOLb7GfYyvj0+62JZtOvLjDzvx8fZOG9fH25uxoz/kjZ69MRiNuLq48OnE8QCsXb+BK1fCmPDJGL759jumBc4kJjaWFHMKe/bspV/fPuz8bjdh4eG0atMhrc/+771L82ZN2PPjT9SpXSvL/bbXhI/fB6BqpXJp6x5uPdlv1TTjDFbpksUYNbRvhu3DB7ydYduIQX0eVKoiIiIijy1DQmJyxntpgOCQy5QrU/ShDWyzwbJNV5myJJqUlIwpeLgaCRhRkLpVnR9aDtnp138wTZs0pmmTxjmWw+NkzFh/Rn4wlNy5cz/0sSwWC81atGX+vFkUK/r0Qx/vSfRbcAhlihbK6TRERETkf1COzERA6pKBnu09qPKSE1t3xxEelULsdSv5PU34FsiFXxsPCniZcio9AMaNGUXPt96hYoXyj+xdEY+zqlUrP5ICAmBSwDS6dO6oAkJERETkMZRjMxEicn80EyEiIiI5JUfeWC0iIiIiIk8uFREiIiIiImIXFREiIiIiImIXFREiIiIiImIXFREiIiIiImIXFREiIiIiImIXFREiIiIiImIXFREiIiIiImIXFREiIiIiImIXFREiIiIiImIXFREiIiIiImIXFREiIiIiImIXFREiIiIiImIXFREiIiIiImIXFREiIiIiImIXFREiIiIiImIXFREiIiIiImIXFREiIiIiImIXFREiIiIiImIXFREiIiIiImKXOxYRuR0cHmUeImInR/03KiIiIjnkjkVELpOJ6GvxjzIXEblL0dfiMZlMOZ2GiIiI/I+6YxHh5uJEVMz1R5mLiNylqNjruDk75XQaIiIi8j/qjkWEh6szGOD0+VDNSIg8JqKvxXM6JBQADzfnHM5GRERE/lcZEhKTbVk1uHo9gesJiVgsFpLM5keVl4jcJreDA7lMJtxcnFKLfBEREZEckm0RISIiIiIicis94lVEREREROyiIkJEREREROyiIkJEREREROyiIkJEREREROyiIkJEREREROyiIkJEREREROyiIkJEREREROzy/zShpbEqGGrbAAAAAElFTkSuQmCC;" vertex="1" parent="1">
          <mxGeometry x="970" y="335" width="785" height="271" as="geometry" />
        </mxCell>
        <mxCell id="rcKBmjPD2T-8vvWQDqal-30" value="" style="shape=image;verticalLabelPosition=bottom;labelBackgroundColor=default;verticalAlign=top;aspect=fixed;imageAspect=0;image=https://cdn.prod.website-files.com/646dd1f1a3703e451ba81ecc/64994922be624dae865d06a5_UltralyticsYOLO_full_blue.svg;" vertex="1" parent="1">
          <mxGeometry x="230" y="510" width="307.14" height="86" as="geometry" />
        </mxCell>
        <mxCell id="rcKBmjPD2T-8vvWQDqal-31" value="" style="shape=image;verticalLabelPosition=bottom;labelBackgroundColor=default;verticalAlign=top;aspect=fixed;imageAspect=0;image=https://miro.medium.com/v2/resize:fit:1400/1*B2T8bycSeIhPFooIwGf8fw.png;" vertex="1" parent="1">
          <mxGeometry x="1170" y="177.68" width="121" height="122.95" as="geometry" />
        </mxCell>
        <mxCell id="rcKBmjPD2T-8vvWQDqal-32" value="&lt;font style=&quot;font-size: 19px;&quot;&gt;Configs&lt;/font&gt;" style="rounded=1;whiteSpace=wrap;html=1;fillColor=#dae8fc;strokeColor=#6c8ebf;" vertex="1" parent="1">
          <mxGeometry x="1140" y="850.78" width="120" height="60" as="geometry" />
        </mxCell>
        <mxCell id="rcKBmjPD2T-8vvWQDqal-35" value="&lt;font style=&quot;font-size: 17px;&quot;&gt;BentoML Backend&lt;/font&gt;" style="text;html=1;align=center;verticalAlign=middle;whiteSpace=wrap;rounded=0;" vertex="1" parent="1">
          <mxGeometry x="50" y="1000" width="210" height="64.87" as="geometry" />
        </mxCell>
        <mxCell id="rcKBmjPD2T-8vvWQDqal-36" value="" style="shape=image;verticalLabelPosition=bottom;labelBackgroundColor=default;verticalAlign=top;aspect=fixed;imageAspect=0;image=https://www.docker.com/wp-content/uploads/2023/05/symbol_blue-docker-logo.png;" vertex="1" parent="1">
          <mxGeometry x="279" y="900.0000000000001" width="161.5" height="113.59" as="geometry" />
        </mxCell>
        <mxCell id="rcKBmjPD2T-8vvWQDqal-37" value="&lt;font style=&quot;font-size: 17px;&quot;&gt;Streamlit Frontend&lt;/font&gt;" style="text;html=1;align=center;verticalAlign=middle;whiteSpace=wrap;rounded=0;" vertex="1" parent="1">
          <mxGeometry x="239" y="1000" width="210" height="64.87" as="geometry" />
        </mxCell>
        <mxCell id="rcKBmjPD2T-8vvWQDqal-38" value="" style="shape=image;verticalLabelPosition=bottom;labelBackgroundColor=default;verticalAlign=top;aspect=fixed;imageAspect=0;image=https://www.docker.com/wp-content/uploads/2023/05/symbol_blue-docker-logo.png;" vertex="1" parent="1">
          <mxGeometry x="480" y="897.9400000000002" width="161.5" height="113.59" as="geometry" />
        </mxCell>
        <mxCell id="rcKBmjPD2T-8vvWQDqal-39" value="&lt;font style=&quot;font-size: 17px;&quot;&gt;GPU training&lt;/font&gt;" style="text;html=1;align=center;verticalAlign=middle;whiteSpace=wrap;rounded=0;" vertex="1" parent="1">
          <mxGeometry x="440" y="997.94" width="210" height="64.87" as="geometry" />
        </mxCell>
        <mxCell id="rcKBmjPD2T-8vvWQDqal-40" value="" style="shape=image;verticalLabelPosition=bottom;labelBackgroundColor=default;verticalAlign=top;aspect=fixed;imageAspect=0;image=https://www.docker.com/wp-content/uploads/2023/05/symbol_blue-docker-logo.png;" vertex="1" parent="1">
          <mxGeometry x="657" y="897.94" width="161.5" height="113.59" as="geometry" />
        </mxCell>
        <mxCell id="rcKBmjPD2T-8vvWQDqal-41" value="&lt;font style=&quot;font-size: 17px;&quot;&gt;CPU training&lt;/font&gt;" style="text;html=1;align=center;verticalAlign=middle;whiteSpace=wrap;rounded=0;" vertex="1" parent="1">
          <mxGeometry x="617" y="997.94" width="210" height="64.87" as="geometry" />
        </mxCell>
      </root>
    </mxGraphModel>
  </diagram>
</mxfile>
